<svg width="82" height="19" viewBox="0 0 82 19" fill="none" xmlns="http://www.w3.org/2000/svg">
<path d="M9.89844 15H0.298828V0.996094H9.89844V3.79883H3.10156V6.60156H7.70117V9.4043H3.10156V12.1973H9.89844V15ZM24.0496 18.9844H21.3641V4.54102H22.0086L23.073 5.80078C23.3139 5.57292 23.5776 5.35807 23.8641 5.15625C24.1505 4.95443 24.4467 4.7819 24.7527 4.63867C25.0652 4.48893 25.3875 4.37174 25.7195 4.28711C26.0516 4.20247 26.3868 4.16016 26.7254 4.16016C27.4611 4.16016 28.1512 4.29362 28.7957 4.56055C29.4467 4.82096 30.0132 5.19206 30.4949 5.67383C30.9832 6.1556 31.3673 6.73828 31.6473 7.42188C31.9272 8.09896 32.0672 8.85091 32.0672 9.67773C32.0672 10.5371 31.9272 11.3118 31.6473 12.002C31.3673 12.6855 30.9832 13.2682 30.4949 13.75C30.0132 14.2253 29.4467 14.5898 28.7957 14.8438C28.1512 15.0977 27.4611 15.2246 26.7254 15.2246C26.491 15.2246 26.2566 15.1986 26.0223 15.1465C25.7944 15.0944 25.5665 15.026 25.3387 14.9414C25.1173 14.8503 24.896 14.7493 24.6746 14.6387C24.4598 14.528 24.2514 14.4141 24.0496 14.2969V18.9844ZM29.3914 9.67773C29.3914 9.23503 29.3198 8.83789 29.1766 8.48633C29.0398 8.13477 28.851 7.83854 28.6102 7.59766C28.3693 7.35026 28.0861 7.16146 27.7605 7.03125C27.435 6.90104 27.09 6.83594 26.7254 6.83594C26.3608 6.83594 26.0158 6.90104 25.6902 7.03125C25.3712 7.16146 25.0913 7.35026 24.8504 7.59766C24.6095 7.83854 24.4174 8.13477 24.2742 8.48633C24.1375 8.83789 24.0691 9.23503 24.0691 9.67773C24.0691 10.1009 24.1375 10.4883 24.2742 10.8398C24.4174 11.1914 24.6095 11.4909 24.8504 11.7383C25.0913 11.9857 25.3712 12.1777 25.6902 12.3145C26.0158 12.4512 26.3608 12.5195 26.7254 12.5195C27.09 12.5195 27.435 12.4512 27.7605 12.3145C28.0861 12.1777 28.3693 11.9857 28.6102 11.7383C28.851 11.4909 29.0398 11.1914 29.1766 10.8398C29.3198 10.4883 29.3914 10.1009 29.3914 9.67773ZM43.259 9.67773C43.259 10.459 43.119 11.1882 42.8391 11.8652C42.5591 12.5358 42.1783 13.1185 41.6965 13.6133C41.2147 14.1016 40.6483 14.4889 39.9973 14.7754C39.3527 15.0553 38.6594 15.1953 37.9172 15.1953C37.1815 15.1953 36.4882 15.0553 35.8371 14.7754C35.1926 14.4889 34.6262 14.1016 34.1379 13.6133C33.6561 13.1185 33.2753 12.5358 32.9953 11.8652C32.7154 11.1882 32.5754 10.459 32.5754 9.67773C32.5754 8.88346 32.7154 8.14779 32.9953 7.4707C33.2753 6.79362 33.6561 6.21094 34.1379 5.72266C34.6262 5.22786 35.1926 4.84049 35.8371 4.56055C36.4882 4.2806 37.1815 4.14062 37.9172 4.14062C38.6594 4.14062 39.3527 4.27409 39.9973 4.54102C40.6483 4.80143 41.2147 5.17578 41.6965 5.66406C42.1783 6.14583 42.5591 6.72852 42.8391 7.41211C43.119 8.08919 43.259 8.8444 43.259 9.67773ZM40.5734 9.67773C40.5734 9.24805 40.5018 8.86068 40.3586 8.51562C40.2219 8.16406 40.0331 7.86458 39.7922 7.61719C39.5513 7.36328 39.2681 7.17122 38.9426 7.04102C38.6236 6.9043 38.2818 6.83594 37.9172 6.83594C37.5526 6.83594 37.2076 6.9043 36.882 7.04102C36.563 7.17122 36.2831 7.36328 36.0422 7.61719C35.8078 7.86458 35.6223 8.16406 35.4855 8.51562C35.3488 8.86068 35.2805 9.24805 35.2805 9.67773C35.2805 10.0814 35.3488 10.4557 35.4855 10.8008C35.6223 11.1458 35.8078 11.4453 36.0422 11.6992C36.2831 11.9531 36.563 12.1549 36.882 12.3047C37.2076 12.4479 37.5526 12.5195 37.9172 12.5195C38.2818 12.5195 38.6236 12.4512 38.9426 12.3145C39.2681 12.1777 39.5513 11.9857 39.7922 11.7383C40.0331 11.4909 40.2219 11.1914 40.3586 10.8398C40.5018 10.4883 40.5734 10.1009 40.5734 9.67773ZM47.4195 15H44.6168V0.996094H54.4215V3.79883H47.4195V6.60156H51.6188V9.4043H47.4195V15ZM58.1133 12.4414C58.2174 12.474 58.3216 12.4967 58.4258 12.5098C58.5299 12.5163 58.6341 12.5195 58.7383 12.5195C58.9987 12.5195 59.2493 12.4837 59.4902 12.4121C59.7311 12.3405 59.9557 12.2396 60.1641 12.1094C60.3789 11.9727 60.5677 11.8099 60.7305 11.6211C60.8997 11.4258 61.0365 11.2109 61.1406 10.9766L63.0938 12.9395C62.8464 13.291 62.5599 13.6068 62.2344 13.8867C61.9154 14.1667 61.5671 14.4043 61.1895 14.5996C60.8184 14.7949 60.4245 14.9414 60.0078 15.0391C59.5977 15.1432 59.1745 15.1953 58.7383 15.1953C58.0026 15.1953 57.3092 15.0586 56.6582 14.7852C56.0137 14.5117 55.4473 14.1309 54.959 13.6426C54.4772 13.1543 54.0964 12.5749 53.8164 11.9043C53.5365 11.2272 53.3965 10.485 53.3965 9.67773C53.3965 8.85091 53.5365 8.0957 53.8164 7.41211C54.0964 6.72852 54.4772 6.14583 54.959 5.66406C55.4473 5.18229 56.0137 4.80794 56.6582 4.54102C57.3092 4.27409 58.0026 4.14062 58.7383 4.14062C59.1745 4.14062 59.6009 4.19271 60.0176 4.29688C60.4342 4.40104 60.8281 4.55078 61.1992 4.74609C61.5768 4.94141 61.9284 5.18229 62.2539 5.46875C62.5794 5.7487 62.8659 6.06445 63.1133 6.41602L58.1133 12.4414ZM59.4805 6.94336C59.3568 6.89779 59.2331 6.86849 59.1094 6.85547C58.9922 6.84245 58.8685 6.83594 58.7383 6.83594C58.3737 6.83594 58.0286 6.9043 57.7031 7.04102C57.3841 7.17122 57.1042 7.36003 56.8633 7.60742C56.6289 7.85482 56.4434 8.1543 56.3066 8.50586C56.1699 8.85091 56.1016 9.24154 56.1016 9.67773C56.1016 9.77539 56.1048 9.88607 56.1113 10.0098C56.1243 10.1335 56.1406 10.2604 56.1602 10.3906C56.1862 10.5143 56.2155 10.6348 56.248 10.752C56.2806 10.8691 56.3229 10.9733 56.375 11.0645L59.4805 6.94336ZM69.8031 15H63.7094V12.3438H69.8031C69.9854 12.3438 70.1417 12.2786 70.2719 12.1484C70.4021 12.0182 70.4672 11.862 70.4672 11.6797C70.4672 11.4909 70.4021 11.3672 70.2719 11.3086C70.1417 11.25 69.9854 11.2207 69.8031 11.2207H67.0297C66.5674 11.2207 66.1345 11.1328 65.7309 10.957C65.3272 10.7812 64.9756 10.5436 64.6762 10.2441C64.3767 9.93815 64.1391 9.58333 63.9633 9.17969C63.794 8.77604 63.7094 8.3431 63.7094 7.88086C63.7094 7.41862 63.794 6.98568 63.9633 6.58203C64.1391 6.17839 64.3767 5.82682 64.6762 5.52734C64.9756 5.22786 65.3272 4.99349 65.7309 4.82422C66.1345 4.64844 66.5674 4.56055 67.0297 4.56055H72.4301V7.2168H67.0297C66.8474 7.2168 66.6911 7.2819 66.5609 7.41211C66.4307 7.54232 66.3656 7.69857 66.3656 7.88086C66.3656 8.06966 66.4307 8.23242 66.5609 8.36914C66.6911 8.49935 66.8474 8.56445 67.0297 8.56445H69.8031C70.2589 8.56445 70.6885 8.64258 71.0922 8.79883C71.4958 8.94857 71.8474 9.16016 72.1469 9.43359C72.4464 9.70703 72.684 10.0358 72.8598 10.4199C73.0355 10.804 73.1234 11.224 73.1234 11.6797C73.1234 12.1419 73.0355 12.5749 72.8598 12.9785C72.684 13.3757 72.4464 13.7272 72.1469 14.0332C71.8474 14.3327 71.4958 14.5703 71.0922 14.7461C70.6885 14.9154 70.2589 15 69.8031 15ZM79.3934 15C78.7488 15 78.1434 14.8796 77.577 14.6387C77.0105 14.3913 76.5125 14.056 76.0828 13.6328C75.6596 13.2031 75.3243 12.7051 75.077 12.1387C74.8361 11.5723 74.7156 10.9668 74.7156 10.3223V7.2168H73.4168V4.56055H74.7156V0.380859H77.3719V4.56055H81.4148V7.2168H77.3719V10.3223C77.3719 10.6022 77.424 10.8659 77.5281 11.1133C77.6323 11.3542 77.7755 11.5658 77.9578 11.748C78.1401 11.9303 78.3549 12.0768 78.6023 12.1875C78.8497 12.2917 79.1134 12.3438 79.3934 12.3438H81.4148V15H79.3934Z" fill="black"/>
<path d="M20.807 15H17.5453L15.4652 11.7969L13.3656 15H10.1039L13.9223 9.63867L10.1039 4.48242H13.3656L15.4652 7.48047L17.5453 4.48242H20.807L16.9789 9.63867L20.807 15Z" fill="#5522CC"/>
</svg>
