<?xml version="1.0" encoding="utf-8"?>
<!-- Generator: Adobe Illustrator 27.5.0, SVG Export Plug-In . SVG Version: 6.00 Build 0)  -->
<svg version="1.1" xmlns="http://www.w3.org/2000/svg" xmlns:xlink="http://www.w3.org/1999/xlink" x="0px" y="0px"
	 viewBox="0 0 750 411.475" style="enable-background:new 0 0 750 411.475;" xml:space="preserve">
<g id="BACKGROUND">
	<g>
		<rect style="fill:#F7E39C;" width="750" height="411.475"/>
	</g>
</g>
<g id="OBJECTS">
	<g>
		<g>
			<defs>
				<rect id="SVGID_1_" width="750" height="411.475"/>
			</defs>
			<clipPath id="SVGID_00000158017499697271790940000003144013405591925921_">
				<use xlink:href="#SVGID_1_"  style="overflow:visible;"/>
			</clipPath>
			<g style="clip-path:url(#SVGID_00000158017499697271790940000003144013405591925921_);">
				<g>
					<g>
						<rect y="68.115" style="fill:#F9EBB5;" width="751.505" height="227.078"/>
						<g>
							<g>
								<line style="fill:none;stroke:#1F1426;stroke-miterlimit:10;" x1="0" y1="295.779" x2="0" y2="71.769"/>
								<line style="fill:none;stroke:#1F1426;stroke-miterlimit:10;" x1="28.675" y1="295.779" x2="28.675" y2="71.769"/>
								<line style="fill:none;stroke:#1F1426;stroke-miterlimit:10;" x1="57.352" y1="295.779" x2="57.352" y2="71.769"/>
								<line style="fill:none;stroke:#1F1426;stroke-miterlimit:10;" x1="86.027" y1="295.779" x2="86.027" y2="71.769"/>
								<line style="fill:none;stroke:#1F1426;stroke-miterlimit:10;" x1="114.704" y1="295.779" x2="114.704" y2="71.769"/>
								<line style="fill:none;stroke:#1F1426;stroke-miterlimit:10;" x1="143.379" y1="295.779" x2="143.379" y2="71.769"/>
								<line style="fill:none;stroke:#1F1426;stroke-miterlimit:10;" x1="172.054" y1="295.779" x2="172.054" y2="71.769"/>
								<line style="fill:none;stroke:#1F1426;stroke-miterlimit:10;" x1="200.731" y1="295.779" x2="200.731" y2="71.769"/>
							</g>
							<g>
								<line style="fill:none;stroke:#1F1426;stroke-miterlimit:10;" x1="229.583" y1="295.779" x2="229.583" y2="71.769"/>
								<line style="fill:none;stroke:#1F1426;stroke-miterlimit:10;" x1="258.258" y1="295.779" x2="258.258" y2="71.769"/>
								<line style="fill:none;stroke:#1F1426;stroke-miterlimit:10;" x1="286.935" y1="295.779" x2="286.935" y2="71.769"/>
								<line style="fill:none;stroke:#1F1426;stroke-miterlimit:10;" x1="315.611" y1="295.779" x2="315.611" y2="71.769"/>
								<line style="fill:none;stroke:#1F1426;stroke-miterlimit:10;" x1="344.287" y1="295.779" x2="344.287" y2="71.769"/>
								<line style="fill:none;stroke:#1F1426;stroke-miterlimit:10;" x1="372.962" y1="295.779" x2="372.962" y2="71.769"/>
								<line style="fill:none;stroke:#1F1426;stroke-miterlimit:10;" x1="401.638" y1="295.779" x2="401.638" y2="71.769"/>
								<line style="fill:none;stroke:#1F1426;stroke-miterlimit:10;" x1="430.315" y1="295.779" x2="430.315" y2="71.769"/>
							</g>
							<g>
								<line style="fill:none;stroke:#1F1426;stroke-miterlimit:10;" x1="459.167" y1="295.779" x2="459.167" y2="71.769"/>
								<line style="fill:none;stroke:#1F1426;stroke-miterlimit:10;" x1="487.842" y1="295.779" x2="487.842" y2="71.769"/>
								<line style="fill:none;stroke:#1F1426;stroke-miterlimit:10;" x1="516.519" y1="295.779" x2="516.519" y2="71.769"/>
								<line style="fill:none;stroke:#1F1426;stroke-miterlimit:10;" x1="545.194" y1="295.779" x2="545.194" y2="71.769"/>
								<line style="fill:none;stroke:#1F1426;stroke-miterlimit:10;" x1="573.87" y1="295.779" x2="573.87" y2="71.769"/>
								<line style="fill:none;stroke:#1F1426;stroke-miterlimit:10;" x1="602.546" y1="295.779" x2="602.546" y2="71.769"/>
								<line style="fill:none;stroke:#1F1426;stroke-miterlimit:10;" x1="631.221" y1="295.779" x2="631.221" y2="71.769"/>
								<line style="fill:none;stroke:#1F1426;stroke-miterlimit:10;" x1="659.898" y1="295.779" x2="659.898" y2="71.769"/>
							</g>
							<g>
								<line style="fill:none;stroke:#1F1426;stroke-miterlimit:10;" x1="688.751" y1="295.779" x2="688.751" y2="71.769"/>
								<line style="fill:none;stroke:#1F1426;stroke-miterlimit:10;" x1="717.425" y1="295.779" x2="717.425" y2="71.769"/>
								<line style="fill:none;stroke:#1F1426;stroke-miterlimit:10;" x1="746.102" y1="295.779" x2="746.102" y2="71.769"/>
							</g>
						</g>
					</g>
					<rect y="64.629" style="fill:#1F1426;" width="753.109" height="6.97"/>
				</g>
				<g>
					<rect x="-19.199" y="283.404" style="fill:#B7AFE8;" width="831.557" height="139.838"/>
				</g>
				<g>
					<g>
						<g>
							<rect x="-23.027" y="86.103" style="fill:#EFD37E;" width="254.665" height="200.635"/>
						</g>
						<g>
							<rect x="252.893" y="105.602" style="fill:#D9B76B;" width="101.806" height="181.135"/>
						</g>
						<g>
							<polygon style="fill:#EFD37E;" points="252.892,286.738 230.185,286.738 230.185,86.103 252.892,104.812 							"/>
						</g>
					</g>
					<g>
						<g>
							<g>
								<rect x="23.527" y="120.48" style="fill:#65A281;" width="166.879" height="88.909"/>
								<rect x="30.107" y="127.073" style="fill:#E4B2B0;" width="154.162" height="75.722"/>
							</g>
							<g>
								<rect x="270.824" y="126.281" style="fill:#66A582;" width="71.266" height="116.621"/>
								<rect x="274.863" y="170.141" style="fill:#EFC14B;" width="63.386" height="64.111"/>
							</g>
							<g>
								<circle style="fill:none;stroke:#D36016;stroke-miterlimit:10;" cx="106.966" cy="164.144" r="19.21"/>
								<polygon style="fill:#D36016;stroke:#D36016;stroke-linecap:round;stroke-linejoin:round;stroke-miterlimit:10;" points="
									100.539,153.892 118.296,164.144 100.539,174.396 								"/>
							</g>
						</g>
						<rect x="80.695" y="89.321" style="fill:#1F1426;" width="55.039" height="10.714"/>
						<rect x="286.462" y="109.015" style="fill:#1F1426;" width="39.99" height="10.714"/>
					</g>
				</g>
				<g>
					<g>
						<g>
							<g>
								<rect x="419.28" y="87.661" style="fill:#EFD37E;" width="69.769" height="210.72"/>
							</g>
							<g>
								<rect x="508.85" y="87.661" style="fill:#EFD37E;" width="189.572" height="199.406"/>
							</g>
							<g>
								<polygon style="fill:#D9B76B;" points="508.853,87.661 508.853,287.5 487.698,298.382 487.698,87.661 								"/>
							</g>
							<g>
								<rect x="718.225" y="87.661" style="fill:#EFD37E;" width="69.767" height="210.72"/>
							</g>
							<g>
								<polygon style="fill:#D9B76B;" points="698.421,87.661 698.421,287.5 719.574,298.382 719.574,87.661 								"/>
							</g>
						</g>
						<g>
							<rect x="416.483" y="31.663" style="fill:#D25F1B;" width="374.307" height="73.46"/>
							<rect x="463.897" y="49.976" style="fill:#FFFFFF;" width="279.479" height="36.835"/>
						</g>
					</g>
					<g>
						<rect x="546.473" y="114.95" style="fill:#1F1426;" width="121.18" height="74.147"/>
						<rect x="553.341" y="120.449" style="fill:#D36016;" width="107.78" height="63.148"/>
						<polygon style="fill:#EFC14B;" points="635.183,146.107 628.339,151.992 634.416,158.667 625.691,160.987 628.271,169.639 
							619.402,167.957 617.971,176.87 610.714,171.495 605.562,178.911 601.351,170.926 593.488,175.359 593.161,166.337 
							584.152,166.933 587.772,158.664 579.403,155.281 586.248,149.397 580.17,142.722 588.896,140.402 586.316,131.75 
							595.185,133.432 596.615,124.518 603.872,129.894 609.025,122.477 613.235,130.463 621.098,126.03 621.426,135.052 
							630.434,134.455 626.815,142.725 						"/>
						
							<text transform="matrix(0.9553 -0.2955 0.2955 0.9553 586.1307 170.8813)" style="fill:#FFFFFF; font-family:'Antonio-Bold'; font-size:26.4839px;">new</text>
					</g>
				</g>
			</g>
		</g>
		<g>
			<g>
				
					<rect x="437.69" y="326.182" transform="matrix(-1 -1.224647e-16 1.224647e-16 -1 952.7078 657.7004)" style="fill:#1F1426;" width="77.329" height="5.336"/>
				<g>
					
						<rect x="474.027" y="246.098" transform="matrix(-1 -1.224647e-16 1.224647e-16 -1 952.7073 573.6289)" style="fill:#1F1426;" width="4.653" height="81.433"/>
					<path style="fill:#1F1426;" d="M418.738,218.288"/>
					<path style="fill:#1F1426;" d="M418.738,326.362"/>
				</g>
			</g>
			<g>
				<g>
					<path style="fill:none;stroke:#000000;stroke-miterlimit:10;" d="M449.099,172.437"/>
					<path style="fill:none;stroke:#000000;stroke-miterlimit:10;" d="M507.446,172.437"/>
				</g>
				<g>
					<rect x="435.099" y="171.51" style="fill:#1F1426;" width="84.199" height="2.965"/>
					<rect x="435.099" y="281.609" style="fill:#1F1426;" width="84.199" height="2.966"/>
					<rect x="436.079" y="174.475" style="fill:#FFFFFF;" width="82.237" height="107.511"/>
				</g>
			</g>
			<g>
				<rect x="442.428" y="265.275" style="fill:#B7AFE8;" width="4.072" height="3.678"/>
				<g>
					<g>
						<g>
							<path style="fill:#B7AFE8;" d="M477.261,192.516c-18.113,0-32.797,14.684-32.797,32.797c0,4.109,0.762,8.037,2.142,11.661
								l30.655-11.661V192.516z"/>
							<path style="fill:#65A281;" d="M508.889,216.639c-3.805-13.902-16.52-24.122-31.629-24.122v32.797L508.889,216.639z"/>
							<path style="fill:#E4B2B0;" d="M506.333,240.489c2.374-4.539,3.724-9.699,3.724-15.176c0-3.004-0.412-5.91-1.168-8.674
								l-31.629,8.674L506.333,240.489z"/>
							<path style="fill:#EFC14B;" d="M477.261,258.11c12.636,0,23.595-7.15,29.073-17.621l-29.073-15.176l-30.655,11.661
								C451.308,249.329,463.256,258.11,477.261,258.11z"/>
						</g>
						
							<ellipse transform="matrix(0.7071 -0.7071 0.7071 0.7071 -19.5341 403.4669)" style="fill:#FFFFFF;" cx="477.261" cy="225.313" rx="15.227" ry="15.227"/>
					</g>
					<g>
						<g>
							<g>
								<g>
									<rect x="490.443" y="265.275" style="fill:#E3E3E3;" width="25.317" height="3.678"/>
									<rect x="484.489" y="265.275" style="fill:#65A281;" width="4.072" height="3.678"/>
								</g>
								<g>
									<rect x="490.443" y="271.772" style="fill:#E3E3E3;" width="25.317" height="3.678"/>
									<rect x="484.489" y="271.772" style="fill:#E4B2B0;" width="4.072" height="3.678"/>
								</g>
							</g>
							<g>
								<rect x="448.87" y="265.275" style="fill:#E3E3E3;" width="25.317" height="3.678"/>
								<g>
									<rect x="448.87" y="271.772" style="fill:#E3E3E3;" width="25.317" height="3.678"/>
									<rect x="442.428" y="271.772" style="fill:#D36016;" width="4.072" height="3.678"/>
								</g>
							</g>
						</g>
						<g>
							<rect x="451.592" y="177.936" style="fill:#E3E3E3;" width="52.709" height="4.239"/>
							<rect x="441.601" y="183.73" style="fill:#E3E3E3;" width="72.691" height="4.239"/>
						</g>
					</g>
				</g>
			</g>
		</g>
	</g>
	<g>
		<g>
			<ellipse style="fill:#1F1426;" cx="616.133" cy="353.058" rx="67.727" ry="11.957"/>
			<g>
				<g>
					<path style="fill:#FFFFFF;" d="M569.864,260.037v84.738c0,13.732,20.452,16.861,45.679,16.861
						c25.227,0,45.679-3.13,45.679-16.861v-84.738H569.864z"/>
					<rect x="546.417" y="251.619" style="fill:#D25F1B;" width="137.443" height="8.418"/>
					<g>
						<path style="fill:#1F1426;" d="M569.864,268.911c0,0,13.014-6.097,48.197-6.097c35.183,0,43.161,6.097,43.161,6.097v-8.874
							h-91.358V268.911z"/>
						
							<line style="fill:none;stroke:#1F1426;stroke-width:0.5;stroke-linecap:round;stroke-linejoin:round;stroke-miterlimit:10;" x1="657.472" y1="262.322" x2="657.472" y2="345.1"/>
						
							<line style="fill:none;stroke:#1F1426;stroke-width:0.5;stroke-linecap:round;stroke-linejoin:round;stroke-miterlimit:10;" x1="654.239" y1="333.698" x2="654.239" y2="346.222"/>
						
							<line style="fill:none;stroke:#1F1426;stroke-width:0.5;stroke-linecap:round;stroke-linejoin:round;stroke-miterlimit:10;" x1="575.402" y1="264.809" x2="575.402" y2="320.553"/>
						
							<line style="fill:none;stroke:#1F1426;stroke-width:0.5;stroke-linecap:round;stroke-linejoin:round;stroke-miterlimit:10;" x1="577.64" y1="326.735" x2="577.64" y2="349.426"/>
						
							<line style="fill:none;stroke:#1F1426;stroke-width:0.5;stroke-linecap:round;stroke-linejoin:round;stroke-miterlimit:10;" x1="579.878" y1="314.797" x2="579.878" y2="333.932"/>
					</g>
				</g>
				<g>
					<path style="fill:#65A281;" d="M570.557,249.38h88.926h3.958c0-15.907-9.073-12.57-9.28-6.742
						c-0.373-1.742-2.071-2.251-3.105-2.083c-0.691,0.113-1.242,1.428-1.104,3.521c-0.898-1.926-3.336-4.703-5.899-4.988
						c-6.796-0.758-9.28,3.618-9.553,6.712c-0.527-0.312-1.157-0.495-1.832-0.495c-0.652,0-1.262,0.169-1.779,0.464
						c-0.592-1.816-2.423-3.138-4.589-3.138c-2.432,0-4.44,1.667-4.749,3.825c-0.648-0.575-1.656-0.946-2.791-0.946
						c-1.612,0-2.974,0.749-3.398,1.77c-0.571-0.154-1.264-0.246-2.012-0.246c-0.289,0-0.573,0.015-0.843,0.039
						c0.104-0.262,0.161-0.543,0.161-0.839c0-1.351-1.192-2.446-2.661-2.446c-1.159,0-2.143,0.68-2.51,1.629
						c-0.256-0.417-0.642-0.683-1.073-0.683c-0.577,0-1.073,0.476-1.287,1.154c-0.345-0.163-0.734-0.253-1.146-0.253
						c-1.395,0-2.526,1.038-2.526,2.32c0,0.007,0.002,0.012,0.002,0.016c-1.31-1.062-3.276-1.738-5.475-1.738
						c-1.164,0-2.262,0.191-3.235,0.528c0.2-1.254-0.24-2.411-1.247-2.946c-1.002-0.531-2.306-0.305-3.385,0.472
						c-1.414-2.865-4.552-4.86-8.199-4.86C577.325,239.429,570.557,241.751,570.557,249.38z"/>
					<g>
						<g>
							<g>
								<polygon style="fill:#FFFFFF;" points="638.182,182.186 623.358,182.186 623.358,189.905 638.182,189.905 644.527,189.905 
									644.527,182.186 								"/>
								<polygon style="fill:#1F1426;" points="638.182,181.115 622.459,181.115 622.459,182.464 638.182,182.464 645.75,182.464 
									645.75,181.115 								"/>
								<rect x="626.948" y="184.871" style="fill:#1F1426;" width="3.116" height="5.034"/>
							</g>
							<path style="fill:#FFFFFF;" d="M638.164,186.897h-4.643h-0.737h-6.809h-0.736h-6.81h-0.736h-3.778h-0.737h-0.737h-4.643
								h-0.737h-6.809h-0.736h-6.81h-0.736h-3.778h-0.737v0.57v0.837v0.57v0.835h0.737v-0.835h3.778v0.835h0.736v-0.835h6.81v0.835
								h0.736v-0.835h6.809v0.835h0.737v-0.835h4.643v0.835h0.737h0.737v-0.835h3.778v0.835h0.736v-0.835h6.81v0.835h0.736v-0.835
								h6.809v0.835h0.737v-0.835h4.643v0.835h0.736v-0.835v-0.57v-0.837v-0.57H638.164z M588.193,188.303v-0.837h3.778v0.837
								H588.193z M592.707,188.303v-0.837h6.81v0.837H592.707z M600.253,188.303v-0.837h6.809v0.837H600.253z M607.799,188.303
								v-0.837h4.643v0.837H607.799z M613.915,188.303v-0.837h3.778v0.837H613.915z M618.429,188.303v-0.837h6.81v0.837H618.429z
								 M625.975,188.303v-0.837h6.809v0.837H625.975z M638.164,188.303h-4.643v-0.837h4.643V188.303z"/>
						</g>
						<polygon style="fill:#FFFFFF;" points="612.761,191.562 587.428,191.562 587.428,249.38 612.761,249.38 646.472,249.38 
							646.472,191.562 						"/>
						<g>
							<rect x="591.914" y="204.475" style="fill:#66A582;" width="20.847" height="7.324"/>
							<rect x="597.006" y="204.475" style="fill:#1F1426;" width="0.384" height="7.324"/>
							<rect x="602.145" y="204.475" style="fill:#1F1426;" width="0.385" height="7.324"/>
							<rect x="607.285" y="204.475" style="fill:#1F1426;" width="0.385" height="7.324"/>
						</g>
						<g>
							<polygon style="fill:#66A582;" points="641.08,214.303 631.037,214.303 626.921,211.798 612.761,211.798 612.761,204.475 
								641.08,204.475 							"/>
							<rect x="616.133" y="204.475" style="fill:#1F1426;" width="0.386" height="7.324"/>
							<rect x="612.569" y="204.475" style="fill:#1F1426;" width="0.385" height="7.324"/>
							<rect x="621.273" y="204.475" style="fill:#1F1426;" width="0.386" height="7.324"/>
							<rect x="626.412" y="204.475" style="fill:#1F1426;" width="0.385" height="7.324"/>
							<rect x="631.551" y="204.475" style="fill:#1F1426;" width="0.385" height="9.829"/>
							<rect x="636.69" y="204.475" style="fill:#1F1426;" width="0.386" height="9.829"/>
						</g>
						<polygon style="fill:#1F1426;" points="613.169,189.42 586.837,189.42 586.837,192.117 613.169,192.117 647.12,192.117 
							647.12,189.42 						"/>
						<polygon style="fill:#1F1426;" points="613.169,202.04 586.837,202.04 586.837,204.738 613.169,204.738 647.12,204.738 
							647.12,202.04 						"/>
						<g>
							<rect x="591.914" y="222.947" style="fill:#66A582;" width="20.847" height="7.325"/>
							<rect x="597.006" y="222.947" style="fill:#1F1426;" width="0.384" height="7.325"/>
							<rect x="602.145" y="222.947" style="fill:#1F1426;" width="0.385" height="7.325"/>
							<rect x="607.285" y="222.947" style="fill:#1F1426;" width="0.385" height="7.325"/>
						</g>
						<g>
							<polygon style="fill:#66A582;" points="641.08,232.777 631.037,232.777 626.921,230.272 612.761,230.272 612.761,222.947 
								641.08,222.947 							"/>
							<rect x="616.133" y="222.947" style="fill:#1F1426;" width="0.386" height="7.325"/>
							<rect x="612.569" y="222.947" style="fill:#1F1426;" width="0.385" height="7.325"/>
							<rect x="621.273" y="222.947" style="fill:#1F1426;" width="0.386" height="7.325"/>
							<rect x="626.412" y="222.947" style="fill:#1F1426;" width="0.385" height="7.325"/>
							<rect x="631.551" y="222.947" style="fill:#1F1426;" width="0.385" height="9.83"/>
							<rect x="636.69" y="222.947" style="fill:#1F1426;" width="0.386" height="9.83"/>
						</g>
						<polygon style="fill:#1F1426;" points="613.169,222.272 586.837,222.272 586.837,223.621 613.169,223.621 647.12,223.621 
							647.12,222.272 						"/>
						<g>
							<g>
								<rect x="591.062" y="242.365" style="fill:#B7AFE8;" width="3.405" height="5.282"/>
							</g>
							<g>
								<rect x="594.851" y="242.365" style="fill:#B7AFE8;" width="3.404" height="5.282"/>
							</g>
							<g>
								<rect x="601.934" y="242.365" style="fill:#B7AFE8;" width="3.405" height="5.282"/>
							</g>
							<g>
								<rect x="605.723" y="242.365" style="fill:#B7AFE8;" width="3.405" height="5.282"/>
							</g>
							<g>
								<rect x="617.549" y="242.365" style="fill:#B7AFE8;" width="11.423" height="5.282"/>
							</g>
							<g>
								<rect x="630.261" y="242.365" style="fill:#B7AFE8;" width="11.423" height="5.282"/>
							</g>
						</g>
						<g>
							
								<line style="fill:none;stroke:#1F1426;stroke-width:0.5;stroke-linecap:round;stroke-linejoin:round;stroke-miterlimit:10;" x1="642.863" y1="184.188" x2="642.863" y2="188.269"/>
							
								<line style="fill:none;stroke:#1F1426;stroke-width:0.5;stroke-linecap:round;stroke-linejoin:round;stroke-miterlimit:10;" x1="641.759" y1="186.312" x2="641.759" y2="189.38"/>
							
								<line style="fill:none;stroke:#1F1426;stroke-width:0.5;stroke-linecap:round;stroke-linejoin:round;stroke-miterlimit:10;" x1="643.288" y1="206.865" x2="643.288" y2="219.615"/>
							
								<line style="fill:none;stroke:#1F1426;stroke-width:0.5;stroke-linecap:round;stroke-linejoin:round;stroke-miterlimit:10;" x1="644.307" y1="217.482" x2="644.307" y2="222.359"/>
							
								<line style="fill:none;stroke:#1F1426;stroke-width:0.5;stroke-linecap:round;stroke-linejoin:round;stroke-miterlimit:10;" x1="643.713" y1="225.296" x2="643.713" y2="241.545"/>
							
								<line style="fill:none;stroke:#1F1426;stroke-width:0.5;stroke-linecap:round;stroke-linejoin:round;stroke-miterlimit:10;" x1="643.458" y1="191.917" x2="643.458" y2="197.354"/>
							
								<line style="fill:none;stroke:#1F1426;stroke-width:0.5;stroke-linecap:round;stroke-linejoin:round;stroke-miterlimit:10;" x1="588.422" y1="200.665" x2="593.773" y2="200.665"/>
						</g>
					</g>
					<g>
						<path style="fill:#B8B0E7;" d="M568.746,251.514h96.406c0.806,0,1.459-0.58,1.459-1.295l0,0c0-0.715-0.652-1.295-1.459-1.295
							h-96.406c-0.805,0-1.459,0.58-1.459,1.295l0,0C567.288,250.934,567.941,251.514,568.746,251.514z"/>
					</g>
				</g>
			</g>
			<g>
				<ellipse style="fill:#1F1426;" cx="703.452" cy="390.148" rx="32.876" ry="3.882"/>
				<g>
					<path style="fill:#1F1426;" d="M679.455,389.112c1.538,0,23.442,0,23.442,0c0-2.077-1.214-9.207-1.214-9.207
						s0.175-0.087,0.445-0.236c0,0-8.659,1.556-8.983,1.392c-0.054-0.024-0.35,0.013-0.823,0.088c-0.485,0.51-1.888,1.953-3.44,3.21
						c-1.941,1.567-6.932,2.226-8.376,2.301C679.051,386.736,677.931,389.112,679.455,389.112z"/>
					<path style="fill:#1F1426;" d="M713.593,388.079c-0.067,1.033,1.376,2.002,3.305,2.002c1.928,0,9.671,0.15,10.304,0
						c0.647-0.148,0.486-1.118,0.162-2.45c-0.324-1.332-2.01-3.198-2.576-4.455c-0.567-1.268-1.281-3.795-1.281-3.795
						c-0.364,0.162-8.862,0.374-8.862,0.374S713.674,387.035,713.593,388.079z"/>
					<path style="fill:#E4B2B0;" d="M691.621,206.034c0,0-2.332,11.461,1.929,18.488c1.631,2.688,4.424,1.419,4.424,1.419
						s0.202,0.647,0.566,2.003c0.014,0.024,0.014,0.036,0.027,0.062c0,0.024,0.014,0.062,0.014,0.099
						c0.215,0.784,0.471,1.78,0.768,3.023l0.368,2.375c0.809-0.05,11.967-1.452,11.967-1.452c-0.135,0.037-1.693-5.738-1.693-5.738
						s0,0,0.013,0c-0.108-1.94-0.836-5.051-0.836-5.051s-0.566-1.332,0.85-2.675c1.403-1.344,3.426-4.604,2.293-6.245
						c-1.133-1.631-2.738-0.299-2.819,0.224c-0.081,0.522-0.243,1.704-0.243,1.704h-1.119c0,0-2.657-3.783-3.063-5.04
						c-0.404-1.269-0.728-3.646-0.728-3.646S697.016,207.29,691.621,206.034z"/>
					<path style="fill:#1F1426;" d="M670.526,263.515c0,1.343,1.929,3.346,4.019,4.316c2.091,0.959,4.181,1.08,4.181,1.08
						s-2.447,26.473-2.447,28.774c0,2.314,2.447,3.588,2.447,3.588s3.501,21.74,5.026,28.931c1.518,7.158,6.007,48.37,6.088,49.178
						c0.081,0.822,2.657,1.568,2.657,1.568s-0.067,0.075-0.175,0.2c0.472-0.075,0.769-0.112,0.823-0.088
						c7.468-0.229,8.983-1.392,8.983-1.392h0.013c0.526-0.287,1.363-0.835,1.794-1.469c0.647-0.969-0.081-32.982-0.404-36.242
						c-0.324-3.272-1.848-28.305-1.848-28.305h1.052c0,0,3.533,22.955,3.695,26.589c0.162,3.645,4,34.895,4.243,37.121
						c0.229,2.09,3.836,2.393,3.958,2.393h0.013c0,0,8.498-0.212,8.862-0.374c0.013,0,0.027-0.012,0.04-0.012
						c0.149-0.062,0.701-0.287,1.241-0.797c0.647-0.597,0.728-2.014,0.324-2.749c-0.404-0.747-0.796-17.754-1.12-20.876
						c-0.324-3.111-1.214-11.733-1.295-15.963c-0.081-4.243,1.015-40.008,1.015-40.008s3.043-1.648,3.205-2.692
						c0.162-1.046-3.653-22.818-3.572-24.895c0.081-2.078-1.214-3.049-1.214-3.049c0.162-1.182,7.013-26.288,6.771-29.772
						c-0.243-3.496-3.062-6.171-5.557-7.414c-2.414-1.22-9.914-3.086-10.372-3.198c0,0-0.014-0.012-0.027-0.012
						c-0.587-1.129-1.227-1.532-1.43-1.632c-0.013,0-1.524,0.001-1.524,0.001s-14.419-0.148-15.012,2.525c0,0,0,0-0.014,0
						c-0.297,0.05-1.592,0.312-3.345,1.034c-2.023,0.821-7.014,2.675-7.81,4.378c-0.809,1.718-5.799,13.375-8.538,17.233
						C672.536,255.352,670.526,262.183,670.526,263.515z"/>
					<g>
						<g>
							<path style="fill:#D25F1B;" d="M701.489,223.395c-2.474-6.67-6.785-12.897-11.032-16.589
								c-1.478-1.284-0.852-4.191,2.852-7.013c3.704-2.824,10.837-4.922,14.864-2.53c5.687,3.377,6.314,6.91,6.716,11.516
								c0.402,4.606-1.932,10.028-3.301,11.661c-1.37,1.635-2.122,2.206-2.122,2.206L701.489,223.395z"/>
							<path style="fill:#D25F1B;" d="M699.713,210.851c-0.112-0.727-4.72-4.564-4.72-4.564l-1.012,1.867
								c0,0,1.591,1.816,1.012,4.874c-0.113,0.597-0.227,1.499-0.227,1.499c-0.101,0.972-0.055,2.463-0.316,2.745
								c-0.832,0.898-2.778,0.472-3.058-0.314c-0.059-0.167-0.319-0.767-0.721,0.864c-0.402,1.631,1.652,8.892,3.311,9.172
								c1.659,0.281,3.508-0.055,3.932-1.798c0.424-1.743-1.511-4.781-1.43-5.843c0.063-0.835-0.043-3.549-0.091-4.673l0.584-1.756
								C696.977,212.923,699.825,211.58,699.713,210.851z"/>
						</g>
						<path style="fill:#E4B2B0;" d="M695.577,215.191c0.054,1.776,0.619,3.197,1.264,3.181c0.644-0.016,1.122-1.467,1.069-3.242
							c-0.053-1.773-0.618-3.197-1.264-3.18C696.003,211.965,695.523,213.417,695.577,215.191z"/>
						<g>
							
								<path style="fill:none;stroke:#000000;stroke-width:0.5;stroke-linecap:round;stroke-linejoin:round;stroke-miterlimit:10;" d="
								M696.857,212.274c-0.268,1.836-0.395,3.692-0.38,5.547"/>
							
								<path style="fill:none;stroke:#000000;stroke-width:0.5;stroke-linecap:round;stroke-linejoin:round;stroke-miterlimit:10;" d="
								M697.861,215.727c-0.037,0.455-0.232,0.896-0.543,1.23"/>
						</g>
					</g>
					<g>
						
							<path style="fill:none;stroke:#000000;stroke-width:0.5;stroke-linecap:round;stroke-linejoin:round;stroke-miterlimit:10;" d="
							M689.148,235.111c0.337,0.103,8.318,4.377,3.26,13.697c-5.058,9.319-10.004,16.888-10.004,16.888"/>
						
							<path style="fill:none;stroke:#000000;stroke-width:0.5;stroke-linecap:round;stroke-linejoin:round;stroke-miterlimit:10;" d="
							M726.55,236.005c0,0,1.77,3.041-0.04,10.551"/>
						
							<path style="fill:none;stroke:#000000;stroke-width:0.5;stroke-linecap:round;stroke-linejoin:round;stroke-miterlimit:10;" d="
							M712.973,227.956c0,0-13.324,0.553-16.855,1.051"/>
						
							<path style="fill:none;stroke:#000000;stroke-width:0.5;stroke-linecap:round;stroke-linejoin:round;stroke-miterlimit:10;" d="
							M720.845,298.801c-0.337-0.03-18.321,2.666-37.092-0.652"/>
						
							<path style="fill:none;stroke:#000000;stroke-width:0.5;stroke-linecap:round;stroke-linejoin:round;stroke-miterlimit:10;" d="
							M720.283,268.911c0,0-3.709,2.488-13.488,1.867"/>
						
							<path style="fill:none;stroke:#000000;stroke-width:0.5;stroke-linecap:round;stroke-linejoin:round;stroke-miterlimit:10;" d="
							M705.221,310.072c-0.449,0.414-3.538,3.581-3.538,3.581"/>
						
							<path style="fill:none;stroke:#000000;stroke-width:0.5;stroke-linecap:round;stroke-linejoin:round;stroke-miterlimit:10;" d="
							M700.388,345.841c-0.113,0.311-0.562,1.866-4.833,0.933c-4.271-0.933-4.743-0.933-4.743-0.933"/>
						
							<path style="fill:none;stroke:#000000;stroke-width:0.5;stroke-linecap:round;stroke-linejoin:round;stroke-miterlimit:10;" d="
							M720.619,345.425c0,0,0.226,2.073-2.696,2.8"/>
						<path d="M683.163,298.42c0,0,17.129,1.081,20.643,1.081c3.513,0,17.806,0.414,17.806,0.414l-0.041-1.412l-38.408-0.818V298.42
							z"/>
					</g>
				</g>
			</g>
			<g>
				<ellipse style="fill:#1F1426;" cx="528.521" cy="383.931" rx="32.875" ry="3.882"/>
				<g>
					<g>
						<path style="fill:#E4B2B0;" d="M553.716,235.569c0,0,0.005-0.026,0.014-0.075c0.129-0.682,1.114-5.774,1.785-6.614
							c0.72-0.9,2.34-1.62,2.34-1.62l7.38-8.281c0,0,1.249,0.124,1.16,0.934c-0.09,0.81-3.679,5.367-3.679,5.367
							s1.35,0.208,2.069,1.318c0.721,1.112,0,1.922,0,1.922s1.598,2.139,1.145,3.184c0,0-1.033,3.297-3.127,2.932
							c-1.968,2.009-4.478,4.277-5.598,4.074c-1.981-0.358-1.918,1.246-1.918,1.246l-2.277-3.741L553.716,235.569z"/>
						<g>
							
								<path style="fill:#E4B2B0;stroke:#000000;stroke-width:0.5;stroke-linecap:round;stroke-linejoin:round;stroke-miterlimit:10;" d="
								M558.216,228.04h2.79c0,0,1.877,3.242,1.89,3.664c0.027,0.852-1.057,0.798-1.44,0.686c-0.614-0.18-1.35-2.175-1.35-2.175
								s-1.71,1.095-2.52,0.825"/>
							<g>
								
									<path style="fill:none;stroke:#000000;stroke-width:0.5;stroke-linecap:round;stroke-linejoin:round;stroke-miterlimit:10;" d="
									M559.476,230.572c0,0,1.08,2.686-0.81,4.997"/>
								
									<line style="fill:#66A582;stroke:#000000;stroke-width:0.5;stroke-linecap:round;stroke-linejoin:round;stroke-miterlimit:10;" x1="562.717" y1="225.281" x2="561.397" y2="227.409"/>
								
									<line style="fill:#66A582;stroke:#000000;stroke-width:0.5;stroke-linecap:round;stroke-linejoin:round;stroke-miterlimit:10;" x1="564.786" y1="228.521" x2="562.717" y2="230.999"/>
								
									<path style="fill:none;stroke:#000000;stroke-width:0.5;stroke-linecap:round;stroke-linejoin:round;stroke-miterlimit:10;" d="
									M565.555,229.873c0,0-1.457,4.135-3.288,4.086c-0.391-0.011-1-1.093-0.845-1.317"/>
								<path style="fill:#E4B2B0;" d="M561.816,228.974c-0.037-0.105,1.08-1.391,1.08-1.391"/>
							</g>
						</g>
					</g>
					<g>
						<g>
							
								<path style="fill:#1F1426;stroke:#1F1426;stroke-width:0.5;stroke-linecap:round;stroke-linejoin:round;stroke-miterlimit:10;" d="
								M553.274,380.744c-0.744-0.798-2.8-0.802-5.219-1.823c-0.864,0.402-2.41,0.905-4.322,0.553
								c-2.958-0.543-6.521-4.045-7.609-6.099c-0.589-1.112-1.277-1.841-1.791-2.287c-0.126,0.684-0.279,1.647-0.443,3.011
								c-0.483,3.987,1.208,9.058,1.208,9.058h2.596c0,0-0.543-2.899,0-3.199c0.544-0.303,5.375,3.199,7.005,3.199
								c1.631,0,8.575,0,8.575,0S554.12,381.65,553.274,380.744z"/>
							<path style="fill:#E4B2B0;" d="M536.124,373.376c1.087,2.053,4.65,5.556,7.609,6.099c1.912,0.352,3.458-0.151,4.322-0.553
								c-0.327-0.138-0.661-0.291-1-0.471c-2.838-1.511-5.073-7.006-5.858-9.361c-0.785-2.355-2.597-44.626-2.597-44.626
								l-0.121-0.908H527.73c0,0-0.302,7.972,0.302,11.353c0.603,3.383,3.321,11.897,4.227,15.822
								c0.906,3.927,2.476,18.782,2.476,18.782s-0.157,0.269-0.402,1.578C534.847,371.534,535.535,372.264,536.124,373.376z"/>
						</g>
						<g>
							<path style="fill:#E4B2B0;" d="M518.611,339.618c0.363-6.159-0.483-16.547-0.483-16.547l-8.817-1.329
								c0,0-1.268,5.859-1.57,8.999c-0.302,3.14,1.208,35.569,1.268,38.588c0.061,3.02-1.751,8.999-1.751,8.999
								s-0.132,0.283-0.286,0.722c0.579,0.672,1.652,1.575,3.065,1.694c2.174,0.18,3.502-0.605,3.925-1.752
								c0.264-0.716,1.045-2.562,1.596-3.848c-0.033-0.216-0.063-0.412-0.086-0.56c-0.121-0.786-0.242-7.549,0-10.689
								C515.712,360.754,518.248,345.778,518.611,339.618z"/>
							
								<path style="fill:#1F1426;stroke:#1F1426;stroke-width:0.5;stroke-linecap:round;stroke-linejoin:round;stroke-miterlimit:10;" d="
								M510.036,380.744c-1.413-0.119-2.486-1.022-3.065-1.694c-0.357,1.017-0.834,2.886-0.075,4.108
								c1.086,1.753,3.321,2.235,5.314,1.39c1.993-0.846,3.683-3.624,3.683-5.495c0-1.517-0.197-2.985-0.337-3.908
								c-0.551,1.286-1.332,3.131-1.596,3.848C513.538,380.139,512.21,380.924,510.036,380.744z"/>
						</g>
						<path style="fill:#1F1426;" d="M508.935,323.555c0,0,4.617,1.311,9.32,1.259l-0.128-1.743l-8.817-1.329L508.935,323.555z"/>
						<polygon style="fill:#1F1426;" points="527.654,325.426 538.641,325.426 538.479,323.555 527.73,323.555 						"/>
					</g>
					<g>
						<path style="fill:#1F1426;" d="M535.246,262.652c0,0,1.168,9.108,3.053,26.6c1.781,16.533,2.738,35.208,2.738,35.208
							s-11.293,0.059-19.868-0.483c-8.576-0.544-14.433-1.994-14.856-2.658c-0.423-0.664-2.175-30.97-2.477-35.316
							c-0.302-4.348-0.934-20.689,0.73-24.272L535.246,262.652z"/>
						<g>
							<path style="fill:#1F1426;" d="M504.341,262.336c0,0,9.622,2.557,17.139,2.688c7.518,0.132,14.129-1.344,14.129-1.344
								l-0.129-0.603l-30.915-1.346L504.341,262.336z"/>
						</g>
					</g>
					<g>
						<path style="fill:#D25F1B;" d="M551.282,236.29l-10.628,6.402c0,0-6.523-17.272-7.851-21.016
							c-1.328-3.745-2.443-6.28-3.757-7.247c-1.315-0.966-15.836-3.672-21.005-2.551c-1.076,0.233-2.414,1.343-3.5,2.671
							c-1.087,1.331-14.856,19.206-14.976,20.534c-0.121,1.328-1.087,3.261,1.087,6.403c2.174,3.14,14.252,15.821,14.252,15.821
							l-0.724,4.348c0,0,13.407,2.778,21.74,2.296c8.334-0.483,10.025-0.967,10.025-0.967l-3.14-15.581c0,0,3.624,5.436,6.402,5.074
							c2.777-0.364,15.339-10.749,15.339-10.749S552.128,236.652,551.282,236.29z M499.709,237.981
							c-0.241-1.087,4.59-5.919,4.59-5.919s0.241,6.885,0.603,9.06c0.363,2.173,0.967,7.006,0.967,7.006
							S499.95,239.068,499.709,237.981z"/>
						<g>
							<path style="fill:#E4B2B0;" d="M511.304,254.649c0,0,6.292,5.012,7.428,6.461c1.135,1.45,2.038,3.858,1.678,5.167
								c-0.102,0.371-0.971,1.346-1.412-0.063c-0.074-0.237-0.266-1.058-0.266-1.058s0.406,3.051,0.076,3.261
								c-0.497,0.318-1.525,0-1.525,0s-1.329,0.819-1.631,0.108c-0.303-0.711-0.807-1.553-0.807-1.553s-1.061,0.403-1.544,0.162
								c-0.483-0.242-2.42-3.306-2.722-3.668c-0.303-0.362-3.503-3.14-3.382-4.953L511.304,254.649z"/>
							<g>
								
									<path style="fill:none;stroke:#1F1426;stroke-width:0.5;stroke-linecap:round;stroke-linejoin:round;stroke-miterlimit:10;" d="
									M514.846,266.972c-1.341-3.235-1.649-3.201-2.254-3.895"/>
								
									<path style="fill:none;stroke:#1F1426;stroke-width:0.5;stroke-linecap:round;stroke-linejoin:round;stroke-miterlimit:10;" d="
									M518.731,265.156c-0.593-2.144-1.702-3.359-2.158-3.895"/>
								
									<path style="fill:none;stroke:#1F1426;stroke-width:0.5;stroke-linecap:round;stroke-linejoin:round;stroke-miterlimit:10;" d="
									M517.283,268.417c0,0-0.733-2.737-0.92-3.392c-0.483-1.69-1.892-3.294-1.892-3.294"/>
							</g>
						</g>
						
							<line style="fill:none;stroke:#1F1426;stroke-width:0.5;stroke-linecap:round;stroke-linejoin:round;stroke-miterlimit:10;" x1="505.869" y1="248.127" x2="510.217" y2="253.32"/>
						<g>
							<g>
								
									<path style="fill:none;stroke:#1F1426;stroke-width:0.5;stroke-linecap:round;stroke-linejoin:round;stroke-miterlimit:10;" d="
									M532.803,247.402l-1.812-10.344c0,0,2.053-5.84,1.812-7.168c-0.242-1.33-2.416-7.731-2.416-7.731"/>
								<polygon style="fill:#1F1426;" points="504.299,232.062 508.586,226.084 504.37,233.822 								"/>
							</g>
						</g>
						
							<path style="fill:none;stroke:#1F1426;stroke-width:0.5;stroke-linecap:round;stroke-linejoin:round;stroke-miterlimit:10;" d="
							M505.869,257.306c0,0,3.623-2.778,4.348-3.986l1.087,1.329c0,0-2.778,3.14-4.106,3.865L505.869,257.306z"/>
						
							<path style="fill:#D25F1B;stroke:#1F1426;stroke-width:0.5;stroke-linecap:round;stroke-linejoin:round;stroke-miterlimit:10;" d="
							M551.636,236.597l1.155-0.73c0,0,2.657,4.227,2.718,4.53c0.06,0.302-1.155,0.939-1.155,0.939S552.232,237.569,551.636,236.597
							z"/>
					</g>
					<g>
						<path style="fill:#1F1426;" d="M530.661,187.844c0,0,1.964-2.964,0-4.896c-1.965-1.932-5.106-1.932-5.106-1.932
							s-5.725-1.059-9.42,0.603c-2.611,1.175-5.556,3.261-7.127,5.436c-1.569,2.174-5.796,6.896-2.536,12.802
							C519.392,223.258,530.661,187.844,530.661,187.844z"/>
					</g>
					<g>
						<path style="fill:#E4B2B0;" d="M529.372,187.069c0.653-0.022,1.224,0.427,1.352,1.068l2.381,11.892h-1.571
							c0,0-0.663,5.955-1.147,7.195c-0.362,0.929-6.039-0.483-6.885,0.603c-0.845,1.088-0.51,6.695-0.51,6.695l1.445,7.073
							c0,0-2.193-1.963-9.364-9.575c0.194-1.216,0.278-1.974,1.091-6.607c2.237-2.698-0.03-2.54-0.633-4.893
							c-0.604-2.355-0.121-5.495,1.448-4.892c1.571,0.603,2.296,2.192,2.296,2.192s1.577-0.793,1.571-1.35
							C520.758,188.141,526.128,187.18,529.372,187.069z"/>
						<g>
							
								<path style="fill:#1F1426;stroke:#1F1426;stroke-width:0.5;stroke-linecap:round;stroke-linejoin:round;stroke-miterlimit:10;" d="
								M516.165,197.723c0,0,0.776-2.334,2.144,1.853"/>
							<path style="fill:#1F1426;" d="M529.688,195.87c0,0.219-0.177,0.395-0.396,0.395c-0.218,0-0.395-0.176-0.395-0.395
								c0-0.219,0.177-0.396,0.395-0.396C529.51,195.473,529.688,195.651,529.688,195.87z"/>
							
								<path style="fill:none;stroke:#1F1426;stroke-width:0.5;stroke-linecap:round;stroke-linejoin:round;stroke-miterlimit:10;" d="
								M526.944,199.954c0,0,0.403,1.47,2.094,1.066"/>
							<path style="fill:#1F1426;" d="M524.437,207.448l-3.068-0.464l1.534,1.933C522.903,208.916,523.885,207.491,524.437,207.448z
								"/>
							<path style="fill:#1F1426;" d="M530.648,193.658c0,0.294-0.863,0-1.753,0s-1.469,0.294-1.469,0s0.579-1.063,1.469-1.063
								S530.648,193.364,530.648,193.658z"/>
						</g>
					</g>
					<path style="fill:#1F1426;" d="M514.591,181.221c-0.747-1.645-2.518-2.692-4.319-2.838c-1.801-0.146-3.601,0.516-5.078,1.557
						c-1.477,1.041-2.664,2.44-3.732,3.898c-0.877,1.198-1.714,2.54-1.719,4.025c-0.006,1.969,1.576,3.73,3.47,4.268
						c1.894,0.538,3.979,0.001,5.62-1.088C511.501,189.27,516.247,184.869,514.591,181.221z"/>
					
						<path style="fill:none;stroke:#1F1426;stroke-width:0.5;stroke-linecap:round;stroke-linejoin:round;stroke-miterlimit:10;" d="
						M506.048,319.276c0,0,13.841,4.19,34.838,2.466"/>
					
						<path style="fill:#1F1426;stroke:#1F1426;stroke-width:0.5;stroke-linecap:round;stroke-linejoin:round;stroke-miterlimit:10;" d="
						M532.803,229.89l-5.859,7.002l4.047,0.166C530.991,237.058,533.232,231.489,532.803,229.89z"/>
					
						<polyline style="fill:none;stroke:#1F1426;stroke-width:0.5;stroke-linecap:round;stroke-linejoin:round;stroke-miterlimit:10;" points="
						513.719,211.691 525.588,224.341 524.089,213.075 					"/>
				</g>
			</g>
		</g>
		<g>
			<g>
				<path style="fill:#1F1426;" d="M224.354,361.212c0,3.073-45.387,5.563-101.374,5.563c-55.988,0-101.374-2.491-101.374-5.563
					s45.387-5.564,101.374-5.564C178.967,355.648,224.354,358.139,224.354,361.212z"/>
				<g>
					<rect x="29.81" y="280.987" style="fill:#D25F1B;" width="185.07" height="78.91"/>
					<g>
						<line style="fill:none;stroke:#1F1426;stroke-miterlimit:10;" x1="46.426" y1="359.915" x2="46.426" y2="281.645"/>
						<line style="fill:none;stroke:#1F1426;stroke-miterlimit:10;" x1="68.116" y1="359.915" x2="68.116" y2="281.645"/>
						<line style="fill:none;stroke:#1F1426;stroke-miterlimit:10;" x1="89.808" y1="359.915" x2="89.808" y2="281.645"/>
						<line style="fill:none;stroke:#1F1426;stroke-miterlimit:10;" x1="111.499" y1="359.915" x2="111.499" y2="281.645"/>
						<line style="fill:none;stroke:#1F1426;stroke-miterlimit:10;" x1="133.19" y1="359.915" x2="133.19" y2="281.645"/>
						<line style="fill:none;stroke:#1F1426;stroke-miterlimit:10;" x1="154.881" y1="359.915" x2="154.881" y2="281.645"/>
						<line style="fill:none;stroke:#1F1426;stroke-miterlimit:10;" x1="176.571" y1="359.915" x2="176.571" y2="281.645"/>
						<line style="fill:none;stroke:#1F1426;stroke-miterlimit:10;" x1="198.263" y1="359.915" x2="198.263" y2="281.645"/>
					</g>
					<rect x="29.81" y="280.987" style="fill:#1F1426;" width="185.07" height="15.677"/>
				</g>
				<rect x="20.335" y="278.046" style="fill:#F5F5F5;" width="204.019" height="7.197"/>
			</g>
			<g>
				<g>
					<path style="fill:#1F1426;" d="M180.677,278.578H66.439c-0.955,0-1.728-0.775-1.728-1.728l0,0c0-0.955,0.773-1.729,1.728-1.729
						h114.238c0.955,0,1.729,0.775,1.729,1.729l0,0C182.406,277.804,181.632,278.578,180.677,278.578z"/>
					<g>
						<g>
							<g>
								<line style="fill:#1F1426;" x1="163.507" y1="275.121" x2="165.27" y2="275.121"/>
							</g>
						</g>
					</g>
				</g>
				<g>
					<path style="fill:#66A582;" d="M178.189,275.126H73.582h-4.655c0-18.726,10.673-14.798,10.917-7.936
						c0.439-2.05,2.436-2.651,3.652-2.453c0.813,0.133,1.46,1.68,1.298,4.145c1.055-2.267,3.924-5.535,6.939-5.872
						c7.995-0.892,10.917,4.259,11.236,7.903c0.621-0.368,1.362-0.583,2.157-0.583c0.767,0,1.484,0.2,2.093,0.546
						c0.696-2.138,2.849-3.694,5.399-3.694c2.861,0,5.222,1.961,5.585,4.501c0.762-0.676,1.949-1.112,3.283-1.112
						c1.897,0,3.498,0.881,3.997,2.084c0.671-0.182,1.488-0.289,2.367-0.289c0.341,0,0.673,0.015,0.991,0.045
						c-0.122-0.308-0.189-0.64-0.189-0.988c0-1.59,1.402-2.879,3.13-2.879c1.363,0,2.52,0.801,2.952,1.917
						c0.301-0.49,0.755-0.803,1.263-0.803c0.678,0,1.262,0.56,1.512,1.358c0.406-0.19,0.864-0.297,1.349-0.297
						c1.641,0,2.971,1.223,2.971,2.732c0,0.007-0.001,0.013-0.001,0.02c1.54-1.25,3.853-2.047,6.441-2.047
						c1.37,0,2.662,0.225,3.805,0.621c-0.234-1.475,0.283-2.838,1.466-3.467c1.18-0.626,2.713-0.361,3.982,0.554
						c1.663-3.374,5.355-5.721,9.646-5.721C170.229,263.411,178.189,266.145,178.189,275.126z"/>
					<g>
						<g>
							<polygon style="fill:#F5F5F5;" points="149.802,173.354 78.404,173.354 78.404,203.482 83.19,203.482 83.19,275.216 
								149.802,275.216 							"/>
						</g>
						<g>
							<rect x="83.19" y="203.482" style="fill:#B7AFE8;" width="33.306" height="71.734"/>
							<rect x="81.276" y="224.176" style="fill:#1F1426;" width="35.22" height="3.826"/>
							<rect x="81.276" y="250.32" style="fill:#1F1426;" width="35.22" height="3.826"/>
						</g>
						<g>
							<rect x="116.496" y="162.124" style="fill:#F5F5F5;" width="21.23" height="11.23"/>
							<rect x="114.581" y="159.492" style="fill:#1F1426;" width="23.145" height="2.631"/>
							<rect x="119.951" y="166.029" style="fill:#B7AFE8;" width="4.464" height="7.324"/>
						</g>
						<g>
							<g>
								<rect x="119.951" y="205.566" style="fill:#E4B2B0;" width="10.114" height="2.598"/>
								<rect x="119.951" y="212.395" style="fill:#E4B2B0;" width="10.114" height="2.599"/>
								<rect x="119.951" y="219.225" style="fill:#E4B2B0;" width="10.114" height="2.598"/>
								<rect x="119.951" y="226.054" style="fill:#E4B2B0;" width="10.114" height="2.599"/>
								<rect x="119.951" y="232.885" style="fill:#E4B2B0;" width="10.114" height="2.598"/>
								<rect x="119.951" y="239.714" style="fill:#E4B2B0;" width="10.114" height="2.599"/>
								<rect x="119.951" y="246.544" style="fill:#E4B2B0;" width="10.114" height="2.598"/>
								<rect x="119.951" y="253.374" style="fill:#E4B2B0;" width="10.114" height="2.599"/>
								<rect x="119.951" y="260.203" style="fill:#E4B2B0;" width="10.114" height="2.599"/>
								<rect x="119.951" y="267.033" style="fill:#E4B2B0;" width="10.114" height="2.599"/>
							</g>
							<g>
								<rect x="134.281" y="205.566" style="fill:#E4B2B0;" width="10.114" height="2.598"/>
								<rect x="134.281" y="212.395" style="fill:#E4B2B0;" width="10.114" height="2.599"/>
								<rect x="134.281" y="219.225" style="fill:#E4B2B0;" width="10.114" height="2.598"/>
								<rect x="134.281" y="226.054" style="fill:#E4B2B0;" width="10.114" height="2.599"/>
								<rect x="134.281" y="232.885" style="fill:#E4B2B0;" width="10.114" height="2.598"/>
								<rect x="134.281" y="239.714" style="fill:#E4B2B0;" width="10.114" height="2.599"/>
								<rect x="134.281" y="246.544" style="fill:#E4B2B0;" width="10.114" height="2.598"/>
								<rect x="134.281" y="253.374" style="fill:#E4B2B0;" width="10.114" height="2.599"/>
								<rect x="134.281" y="260.203" style="fill:#E4B2B0;" width="10.114" height="2.599"/>
								<rect x="134.281" y="267.033" style="fill:#E4B2B0;" width="10.114" height="2.599"/>
							</g>
						</g>
					</g>
					
						<line style="fill:#B8B0E7;stroke:#1F1426;stroke-width:0.5;stroke-linecap:round;stroke-linejoin:round;stroke-miterlimit:10;" x1="137.726" y1="173.354" x2="116.496" y2="173.354"/>
					
						<line style="fill:#B8B0E7;stroke:#1F1426;stroke-width:0.5;stroke-linecap:round;stroke-linejoin:round;stroke-miterlimit:10;" x1="116.496" y1="203.482" x2="78.404" y2="203.482"/>
					
						<line style="fill:none;stroke:#1F1426;stroke-width:0.5;stroke-linecap:round;stroke-linejoin:round;stroke-miterlimit:10;" x1="146.13" y1="181.548" x2="146.13" y2="189.134"/>
					
						<line style="fill:none;stroke:#1F1426;stroke-width:0.5;stroke-linecap:round;stroke-linejoin:round;stroke-miterlimit:10;" x1="144.125" y1="187.339" x2="144.125" y2="191.917"/>
					
						<line style="fill:none;stroke:#1F1426;stroke-width:0.5;stroke-linecap:round;stroke-linejoin:round;stroke-miterlimit:10;" x1="147.132" y1="271.201" x2="147.132" y2="235.43"/>
				</g>
			</g>
			<g>
				<ellipse style="fill:#1F1426;" cx="44.931" cy="382.998" rx="31.181" ry="3.787"/>
				<g>
					<path style="fill:#1F1426;" d="M68.065,382.171c-1.482,0-22.599,0-22.599,0c0-2.171,1.17-9.623,1.17-9.623
						s-0.169-0.091-0.429-0.246c0,0,8.348,1.625,8.66,1.455c0.052-0.025,0.338,0.014,0.793,0.091
						c0.468,0.533,1.82,2.042,3.316,3.355c1.872,1.638,6.683,2.328,8.075,2.405C68.455,379.687,69.535,382.171,68.065,382.171z"/>
					<path style="fill:#1F1426;" d="M35.154,381.092c0.065,1.079-1.326,2.093-3.186,2.093c-1.859,0-9.323,0.156-9.934,0
						c-0.624-0.155-0.469-1.169-0.156-2.561c0.312-1.392,1.938-3.342,2.484-4.655c0.546-1.326,1.235-3.966,1.235-3.966
						c0.351,0.169,8.543,0.39,8.543,0.39S35.076,380,35.154,381.092z"/>
					<path style="fill:#D25F1B;" d="M56.337,190.831c0,0-0.39,16.449-1.86,19.323c-1.469,2.874-4.265,1.482-4.265,1.482
						s-0.195,0.677-0.546,2.094c-0.013,0.025-0.013,0.038-0.026,0.065c0,0.025-0.013,0.065-0.013,0.104
						c-0.208,0.819-0.455,1.859-0.741,3.159l-0.354,2.481c-0.78-0.052-11.537-1.516-11.537-1.516
						c0.13,0.038,1.632-5.997,1.632-5.997s0,0-0.013,0c0.104-2.028,0.806-5.279,0.806-5.279s0.546-1.392-0.82-2.796
						c-1.352-1.404-3.303-4.811-2.21-6.527c1.092-1.704,2.639-0.312,2.718,0.234c0.078,0.546,0.234,1.782,0.234,1.782h1.079
						c0,0,2.562-3.953,2.953-5.266c0.39-1.327,0.701-3.811,0.701-3.811S51.135,192.144,56.337,190.831z"/>
					<path style="fill:#1F1426;" d="M46.824,208.975c2.385-6.971,6.542-13.479,10.635-17.337c1.425-1.342,0.822-4.381-2.749-7.329
						c-3.571-2.951-11.268-6.271-13.507-2.019c-6.375,0.137-6.909,6.597-7.296,11.411c-0.387,4.814,1.863,10.48,3.182,12.187
						c1.321,1.709,2.046,2.306,2.046,2.306L46.824,208.975z"/>
					<path style="fill:#66A582;" d="M49.666,213.73c-0.013,0.025-0.013,0.038-0.026,0.065c0.013-0.039,0.013-0.065,0.013-0.065
						S49.653,213.73,49.666,213.73z"/>
					<path style="fill:#1F1426;" d="M64.491,287.386c0,0-16.512,1.13-19.9,1.13c-3.387,0-17.166,0.433-17.166,0.433l0.039-1.477
						l37.027-0.855V287.386z"/>
					<path style="fill:#1F1426;" d="M54.061,193.046c0,0-0.867,1.843-0.975,5.093c-0.109,3.251-1.015,2.817-1.015,2.817
						l-0.898-2.926c0,0-2.746-1.404-2.638-2.165c0.108-0.761,4.55-4.77,4.55-4.77L54.061,193.046z"/>
					
						<path style="fill:#D25F1B;stroke:#1F1426;stroke-width:0.5;stroke-linecap:round;stroke-linejoin:round;stroke-miterlimit:10;" d="
						M52.523,200.401c-0.052,1.855-0.597,3.341-1.219,3.324c-0.621-0.016-1.082-1.534-1.03-3.388
						c0.051-1.853,0.596-3.341,1.218-3.323C52.112,197.03,52.575,198.547,52.523,200.401z"/>
					<path style="fill:#66A582;" d="M76.673,250.905c0,1.404-1.86,3.497-3.875,4.512c-2.016,1.002-8.543,0.611-8.543,0.611
						s2.328,25.695,2.328,28.1c0,2.419-2.093,2.484-2.093,2.484s-1.014,25.083-1.469,32.689c-0.468,7.608-4.889,51.856-4.967,52.702
						c-0.078,0.858-2.561,1.638-2.561,1.638s0.065,0.079,0.169,0.208c-0.455-0.077-0.741-0.117-0.793-0.091
						c-7.199-0.24-8.66-1.455-8.66-1.455h-0.013c-0.507-0.3-1.314-0.872-1.73-1.535c-0.624-1.013,0.078-34.471,0.39-37.878
						c0.312-3.42,1.781-29.582,1.781-29.582h-1.015c0,0-3.406,23.991-3.562,27.788c-0.156,3.81-6.371,36.721-6.606,39.049
						c-0.221,2.184-1.183,2.249-1.3,2.249h-0.013c0,0-8.192-0.221-8.543-0.39c-0.013,0-0.026-0.013-0.039-0.013
						c-0.144-0.065-0.676-0.3-1.196-0.833c-0.624-0.624-0.702-2.105-0.312-2.874c0.39-0.78,0.767-18.555,1.079-21.818
						c0.312-3.251,1.17-12.263,1.248-16.683c0.078-4.434,1.079-42.312,1.079-42.312s-1.938-0.923-2.093-2.015
						c-0.156-1.093,0.468-24.147,0.39-26.318c-0.078-2.171,1.17-3.186,1.17-3.186c-0.156-1.236-6.761-27.475-6.528-31.116
						c0.234-3.655,2.952-6.45,5.358-7.75c2.328-1.275,9.557-3.225,9.999-3.342c0,0,0.013-0.013,0.026-0.013
						c0.566-1.18,1.183-1.601,1.379-1.706c0.013,0,1.469,0.001,1.469,0.001s13.901-0.154,14.472,2.64c0,0,0,0,0.013,0
						c0.286,0.052,1.535,0.325,3.225,1.079c1.95,0.858,6.762,2.796,7.529,4.576c0.78,1.796,5.591,13.978,8.231,18.01
						C74.736,242.374,76.673,249.513,76.673,250.905z"/>
					
						<path style="fill:none;stroke:#1F1426;stroke-width:0.5;stroke-linecap:round;stroke-linejoin:round;stroke-miterlimit:10;" d="
						M58.721,221.22c-0.325,0.108-8.019,4.574-3.143,14.315c4.876,9.741,9.644,17.651,9.644,17.651"/>
					
						<path style="fill:none;stroke:#1F1426;stroke-width:0.5;stroke-linecap:round;stroke-linejoin:round;stroke-miterlimit:10;" d="
						M22.664,222.155c0,0-1.706,3.179,0.039,11.027"/>
					
						<path style="fill:none;stroke:#1F1426;stroke-width:0.5;stroke-linecap:round;stroke-linejoin:round;stroke-miterlimit:10;" d="
						M35.753,213.742c0,0,12.845,0.578,16.249,1.098"/>
					
						<path style="fill:none;stroke:#1F1426;stroke-width:0.5;stroke-linecap:round;stroke-linejoin:round;stroke-miterlimit:10;" d="
						M28.163,287.783c0.325-0.03,17.663,2.787,35.759-0.681"/>
					
						<path style="fill:none;stroke:#1F1426;stroke-width:0.5;stroke-linecap:round;stroke-linejoin:round;stroke-miterlimit:10;" d="
						M28.705,256.546c0,0,3.576,2.601,13.003,1.951"/>
					
						<path style="fill:none;stroke:#1F1426;stroke-width:0.5;stroke-linecap:round;stroke-linejoin:round;stroke-miterlimit:10;" d="
						M43.226,299.564c0.433,0.433,3.411,3.743,3.411,3.743"/>
					
						<path style="fill:none;stroke:#1F1426;stroke-width:0.5;stroke-linecap:round;stroke-linejoin:round;stroke-miterlimit:10;" d="
						M47.885,336.948c0.109,0.325,0.542,1.95,4.66,0.975s4.573-0.975,4.573-0.975"/>
					
						<path style="fill:none;stroke:#1F1426;stroke-width:0.5;stroke-linecap:round;stroke-linejoin:round;stroke-miterlimit:10;" d="
						M28.381,336.513c0,0-0.218,2.166,2.599,2.926"/>
				</g>
			</g>
			<g>
				<ellipse style="fill:#1F1426;" cx="210.395" cy="379.211" rx="31.181" ry="3.787"/>
				<g>
					<g>
						
							<path style="fill:#1F1426;stroke:#1F1426;stroke-width:0.5;stroke-linecap:round;stroke-linejoin:round;stroke-miterlimit:10;" d="
							M227.484,367.771c0,0-0.919,10.164,0,11.595c0.919,1.432,4.824,4.165,6.516,3.646c1.692-0.522,3.775-3.515,3.385-4.947
							c-0.392-1.431-2.473-10.293-2.473-10.293H227.484z"/>
						
							<path style="fill:#1F1426;stroke:#1F1426;stroke-width:0.5;stroke-linecap:round;stroke-linejoin:round;stroke-miterlimit:10;" d="
							M204.845,369.215c0,0,1.302,6.898-0.78,7.548c-2.082,0.651-22.127,0.912-22.127,0.912s-1.04-2.472,0-2.863
							c1.041-0.391,16.53-6.248,16.53-6.248L204.845,369.215z"/>
					</g>
					<g>
						<path style="fill:#66A582;" d="M231.932,279.374l3.239,82.161c0,0,1.432,3.124,1.302,4.295
							c-0.13,1.172-0.26,2.603-3.645,2.603c-3.384,0-3.748,0.677-6.063-0.13c-3.102-1.079-14.762-68.071-14.762-68.071
							s-4.425,43.992-4.815,47.507c-0.391,3.514,0,18.611-0.651,20.043c-0.651,1.432-3.775,2.343-5.337,2.343
							c-1.562,0-3.909-0.595-4.294-1.431c-1.054-2.284-3.254-75.752-3.254-78.874c0-3.124,0.267-10.446,0.267-10.446H231.932z"/>
						<g>
							
								<path style="fill:#66A582;stroke:#E7AD47;stroke-width:0.5;stroke-linecap:round;stroke-linejoin:round;stroke-miterlimit:10;" d="
								M212.003,300.232"/>
						</g>
					</g>
					<path style="fill:#1F1426;" d="M253.046,238.581c-2.083-6.855-14.924-32.364-16.573-34.101
						c-1.648-1.735-10.951-3.595-10.951-3.595h-20.286c0,0-8.764,2.381-11.367,3.509c-2.604,1.129-13.016,20.218-13.016,20.218
						l-7.982-13.103l-5.901,4.34c1.822,7.895,10.499,23.601,14.924,23.948c4.426,0.347,11.801-8.33,11.801-8.33
						s-2.342,42.085-2.082,44.688c0.26,2.603,1.561,3.383,3.817,3.383c2.257,0,28.548,0,31.758,0c3.21,0,5.467,0.088,6.422-0.867
						c0.954-0.955,0.52-16.574,0.52-16.574s1.041-0.954,1.909-1.301c0.868-0.347,14.837-10.846,15.62-12.061
						C252.439,247.519,255.129,245.435,253.046,238.581z M234.651,248.647l0.695-15.098l5.206,8.764L234.651,248.647z"/>
					<g>
						<g>
							<path style="fill:#D36016;" d="M229.202,257.4c0,0-2.621,0.445-3.488,1.399c-0.867,0.954-6.01,6.422-6.27,7.549
								c-0.26,1.128,0.694,1.561,1.041,1.475c0.347-0.086,2.538-2.082,2.538-2.082s-1.648,8.504-1.041,9.111
								c0.608,0.607,1.649,0.432,1.649,0.432l1.388-5.119c0,0-0.608,5.382,0.087,5.641c0.694,0.26,1.909,0,1.909,0l0.521-0.607
								c0,0,1.909,0.695,2.342-0.088c0.434-0.781,2.447-10.846,2.447-10.846l1.805-2.17L229.202,257.4z"/>
							
								<line style="fill:none;stroke:#1F1426;stroke-width:0.5;stroke-linecap:round;stroke-linejoin:round;stroke-miterlimit:10;" x1="227.536" y1="275.199" x2="228.056" y2="269.471"/>
							
								<line style="fill:none;stroke:#1F1426;stroke-width:0.5;stroke-linecap:round;stroke-linejoin:round;stroke-miterlimit:10;" x1="230.187" y1="274.127" x2="230.187" y2="269.039"/>
						</g>
						<path style="fill:#B8B0E7;" d="M235.726,260.941c0,0-3.765-1.708-5.327-5.874l-1.475,1.823c0,0,2.517,5.032,5.727,5.639
							L235.726,260.941z"/>
					</g>
					<polygon style="fill:#B8B0E7;" points="172.731,211.508 171.602,210.234 166.049,214.111 166.83,215.848 					"/>
					
						<path style="fill:#66A582;stroke:#1F1426;stroke-width:0.5;stroke-linecap:round;stroke-linejoin:round;stroke-miterlimit:10;" d="
						M163.399,207.17"/>
					
						<line style="fill:none;stroke:#1B1322;stroke-width:0.5;stroke-linecap:round;stroke-linejoin:round;stroke-miterlimit:10;" x1="234.651" y1="248.647" x2="230.399" y2="255.067"/>
					<g>
						
							<line style="fill:none;stroke:#1B1322;stroke-width:0.5;stroke-linecap:round;stroke-linejoin:round;stroke-miterlimit:10;" x1="235.345" y1="233.548" x2="230.876" y2="224.872"/>
						
							<path style="fill:none;stroke:#1B1322;stroke-width:0.5;stroke-linecap:round;stroke-linejoin:round;stroke-miterlimit:10;" d="
							M180.853,224.611c0,0,2.517,3.774,2.776,5.986"/>
						
							<line style="fill:none;stroke:#1B1322;stroke-width:0.5;stroke-linecap:round;stroke-linejoin:round;stroke-miterlimit:10;" x1="193.695" y1="231.466" x2="193.652" y2="209.644"/>
					</g>
					<g>
						<path style="fill:#B8B0E7;" d="M218.552,195.719l2.042,0.432c0,0,5.033,3.297,5.206,4.165
							c0.173,0.867-9.024,9.458-9.978,9.891c-0.954,0.436-3.451-5.227-4.383-5.573c-0.932-0.347-2.537-1.208-2.537-1.208l0,0
							c0,0-2.411,0.688-3.019,1.991c-0.607,1.3-0.212,4.531-0.994,4.357c-0.781-0.174-2.169-6.854-1.475-8.07
							c0.694-1.215,4.251-4.86,5.727-5.379C210.615,195.804,218.552,195.719,218.552,195.719z"/>
					</g>
					<g>
						<path style="fill:#1F1426;" d="M200.108,177.962c0,0-4.679-5.513-1.301-8.303c3.379-2.792,11.363-2.568,15.624-0.805
							c4.26,1.764,6.538,6.242,6.905,10.797c0.366,4.555-1.763,9.916-3.012,11.533c-1.249,1.617-1.936,2.182-1.936,2.182
							L200.108,177.962z"/>
						<path style="fill:#D36016;" d="M200.108,176.933c0,0,0.367,15.572,1.763,18.289c1.395,2.719,4.039,1.396,4.039,1.396
							s0.476,1.615,1.249,5.141c0.881,0.221,0.808,2.402,9.696-3.745c1.282-0.887-0.735-6.024-0.735-6.024s-0.522-1.308,0.768-2.637
							c1.289-1.33,3.125-4.56,2.097-6.176c-1.029-1.615-2.497-0.293-2.571,0.22c-0.073,0.514-0.22,1.69-0.22,1.69h-1.029
							c0,0-1.661-3.727-2.792-4.994c-0.866-0.971-0.661-3.601-0.661-3.601S205.029,178.181,200.108,176.933z"/>
						<g>
							<polygon style="fill:#1F1426;" points="205.911,196.618 207.968,195.645 206.43,198.607 							"/>
							<path style="fill:#1F1426;" d="M216.892,184.462c0,0,0.112-1.114,1.211-0.937c1.099,0.178,0,2.259,0,2.259"/>
							<g>
								
									<polyline style="fill:none;stroke:#1F1426;stroke-width:0.5;stroke-linecap:round;stroke-linejoin:round;stroke-miterlimit:10;" points="
									203.374,182.888 203.374,188.454 205.086,188.454 								"/>
								<path style="fill:#1F1426;" d="M202.581,184.651c0,0.237-0.192,0.43-0.429,0.43c-0.238,0-0.43-0.193-0.43-0.43
									c0-0.236,0.192-0.429,0.43-0.429C202.389,184.222,202.581,184.415,202.581,184.651z"/>
								<path style="fill:#1F1426;" d="M207.825,184.651c0,0.237-0.192,0.43-0.43,0.43c-0.237,0-0.429-0.193-0.429-0.43
									c0-0.236,0.192-0.429,0.429-0.429C207.633,184.222,207.825,184.415,207.825,184.651z"/>
								
									<path style="fill:none;stroke:#1F1426;stroke-width:0.5;stroke-linecap:round;stroke-linejoin:round;stroke-miterlimit:10;" d="
									M205.633,190.492c0,0,1.928,0.109,2.699-1.322"/>
								<path style="fill:#1F1426;" d="M209.199,182.459c0,0.382-0.798,0-1.783,0c-0.985,0-1.783,0.382-1.783,0
									c0-0.382,0.798-1.385,1.783-1.385C208.401,181.074,209.199,182.076,209.199,182.459z"/>
								<path style="fill:#1F1426;" d="M203.509,182.981c0,0.382-0.608,0-1.358,0c-0.75,0-1.358,0.382-1.358,0
									c0-0.382,0.608-1.385,1.358-1.385C202.901,181.596,203.509,182.599,203.509,182.981z"/>
							</g>
						</g>
					</g>
					
						<path style="fill:none;stroke:#1F1426;stroke-width:0.5;stroke-linecap:round;stroke-linejoin:round;stroke-miterlimit:10;" d="
						M207.572,292.292c0,0.488,4.431,7.94,4.431,7.94"/>
					
						<path style="fill:none;stroke:#1F1426;stroke-width:0.5;stroke-linecap:round;stroke-linejoin:round;stroke-miterlimit:10;" d="
						M220.541,278.713c-0.325,1.18,9.586,81.429,10.335,85.584"/>
					
						<path style="fill:none;stroke:#1F1426;stroke-width:0.5;stroke-linecap:round;stroke-linejoin:round;stroke-miterlimit:10;" d="
						M197.657,280.386c0,0,1.008,81.333,2.276,85.536"/>
					<g>
						
							<path style="fill:none;stroke:#1F1426;stroke-width:0.5;stroke-linecap:round;stroke-linejoin:round;stroke-miterlimit:10;" d="
							M166.091,206.816c0,0-0.897,2.231,0.673,4.152"/>
						<path style="fill:#D36016;" d="M170.251,198.396c-0.231-0.427-0.999-0.969-1.281,0.064c-0.818,2.989-1.226,5.345-1.226,5.345
							l-1.908-2.335l-3.409-6.526c0,0-1.42,0.15-1.346,0.823c0.075,0.673,2.186,5.351,2.551,6.343
							c-1.192-1.966-4.725-5.931-5.248-6.15c-0.673-0.282-1.102,1.132-1.102,1.132l4.625,6.574c-0.025,0.056-5.602-4.48-5.602-4.48
							s-0.47-0.424-1.176-0.004c-0.705,0.42,0.289,1.402,0.289,1.402l4.921,5.228c-0.002,0.025-4.239-2.714-4.878-2.475
							c-0.747,0.281-0.323,1.376-0.323,1.376l6.439,4.18c0,0,4.925,5.13,5.186,4.947l4.112-2.871
							C170.877,210.968,170.732,199.285,170.251,198.396z"/>
						
							<path style="fill:none;stroke:#1F1426;stroke-width:0.5;stroke-linecap:round;stroke-linejoin:round;stroke-miterlimit:10;" d="
							M167.397,204.921c0,0-1.86,2.537-1.07,4.498"/>
					</g>
					
						<path style="fill:none;stroke:#1F1426;stroke-width:0.5;stroke-linecap:round;stroke-linejoin:round;stroke-miterlimit:10;" d="
						M224.703,272.822c0.241-1.473,0.481-2.947,0.722-4.42"/>
				</g>
			</g>
			<polygon style="fill:#1F1426;" points="50.212,198.975 48.532,197.453 49.875,200.238 			"/>
		</g>
		<g>
			<g>
				<path style="fill:#1F1426;" d="M436.984,394.064c0,2.503-16.043,4.532-35.833,4.532c-19.79,0-35.834-2.029-35.834-4.532
					c0-2.503,16.043-4.532,35.834-4.532C420.941,389.532,436.984,391.561,436.984,394.064z"/>
				<g>
					<path style="fill:#D36016;" d="M370.236,248.516h-3.231c0,0-1.808-3.358-3.1-3.746c-1.291-0.387-4.005,0-4.005,0v2.196
						c0,0-6.589,1.421-6.847,2.067c-0.258,0.647,0,2.196,0,2.196s-1.163,1.68-0.905,2.455c0.259,0.776,3.359,1.68,5.039,1.552
						c1.68-0.13,10.335-0.647,10.335-0.647l3.415,0.138"/>
					<line style="fill:#1F1426;" x1="369.46" y1="254.666" x2="370.938" y2="254.726"/>
					<path style="fill:#1F1426;" d="M369.46,248.516"/>
					<path style="fill:#E4B2B0;" d="M393.523,259.016c-0.503,0.137-8.974,19-8.974,19l4.771,3.406l14.529-20.086L393.523,259.016z"
						/>
					<g>
						<g>
							<path style="fill:#1F1426;" d="M373.874,391.563c0.771-0.827,2.901-0.831,5.407-1.889c0.895,0.416,2.497,0.938,4.478,0.573
								c3.065-0.562,6.756-4.19,7.882-6.318c0.61-1.152,1.323-1.908,1.855-2.369c0.131,0.708,0.289,1.706,0.459,3.119
								c0.5,4.13-1.251,9.384-1.251,9.384h-2.689c0,0,0.563-3.003,0-3.315c-0.564-0.314-5.568,3.315-7.257,3.315
								c-1.689,0-8.883,0-8.883,0S372.997,392.501,373.874,391.563z"/>
							<path style="fill:#D36016;" d="M391.641,383.929c-1.127,2.127-4.818,5.756-7.882,6.318c-1.981,0.364-3.583-0.157-4.478-0.573
								c0.339-0.143,0.685-0.302,1.036-0.488c2.94-1.565,5.255-7.258,6.068-9.698c0.813-2.44,2.69-46.231,2.69-46.231l0.125-0.94
								h11.135c0,0,0.313,8.258-0.313,11.761c-0.625,3.504-3.44,12.325-4.379,16.391c-0.938,4.068-2.565,19.457-2.565,19.457
								s0.162,0.278,0.416,1.635C392.963,382.022,392.25,382.778,391.641,383.929z"/>
						</g>
						<g>
							<path style="fill:#D36016;" d="M409.783,348.957c-0.376-6.38,0.5-17.141,0.5-17.141l9.134-1.377c0,0,1.314,6.069,1.627,9.323
								c0.312,3.253-1.251,36.848-1.314,39.975c-0.063,3.129,1.814,9.323,1.814,9.323s0.136,0.293,0.297,0.748
								c-0.6,0.696-1.711,1.632-3.175,1.755c-2.252,0.187-3.628-0.626-4.066-1.815c-0.274-0.742-1.083-2.654-1.653-3.986
								c0.034-0.224,0.066-0.427,0.089-0.58c0.125-0.815,0.25-7.82,0-11.073C412.787,370.854,410.159,355.34,409.783,348.957z"/>
							<path style="fill:#1F1426;" d="M418.667,391.563c1.464-0.123,2.576-1.059,3.175-1.755c0.37,1.053,0.864,2.99,0.078,4.256
								c-1.125,1.816-3.441,2.316-5.505,1.44c-2.065-0.876-3.816-3.754-3.816-5.693c0-1.572,0.204-3.092,0.349-4.049
								c0.57,1.332,1.38,3.243,1.653,3.986C415.039,390.936,416.414,391.75,418.667,391.563z"/>
						</g>
						<path style="fill:#1F1426;" d="M419.807,332.317c0,0-4.783,1.358-9.655,1.305l0.132-1.805l9.134-1.377L419.807,332.317z"/>
						<polygon style="fill:#1F1426;" points="400.415,334.256 389.033,334.256 389.201,332.317 400.336,332.317 						"/>
					</g>
					<g>
						<path style="fill:#1F1426;" d="M392.55,269.225c0,0-1.211,9.436-3.162,27.557c-1.845,17.128-2.836,36.474-2.836,36.474
							s11.699,0.061,20.583-0.501c8.884-0.564,14.952-2.066,15.39-2.754c0.438-0.688,2.253-32.083,2.566-36.586
							c0.312-4.504,0.967-21.433-0.757-25.144L392.55,269.225z"/>
						<g>
							<path style="fill:#1F1426;" d="M424.566,268.897c0,0-9.968,2.649-17.755,2.785c-7.788,0.137-14.638-1.392-14.638-1.392
								l0.134-0.625l32.027-1.395L424.566,268.897z"/>
						</g>
					</g>
					<path style="fill:#E4B2B0;" d="M371.654,255.164c0,0,13.918,1.742,16.796,2.119c2.878,0.375,5.591-1.492,5.591-1.492
						l-2.213,13.775c0,0,1.751,0.501,10.385,1.002c8.633,0.499,22.522-2.378,22.522-2.378l-0.751-4.504
						c0,0,3.618-39.899,0.375-44.294c-1.055-1.43-2.512-2.526-3.626-2.767c-5.355-1.161-16.51,0.367-17.584,1.673
						c-2.871,3.493-1.479,5.131-3.875,8.478c-4.421,6.179-7.103,8.275-5.593,14.302c0.214,0.854-4.363,5.798-4.363,5.798
						l-17.03,1.266C371.414,248.516,371.654,255.164,371.654,255.164z"/>
					<path style="fill:#E4B2B0;" d="M372.29,248.141l-1.934,0.085c0,0-0.867,6.435-0.762,6.8c0.105,0.364,2.06,0.139,2.06,0.139
						S372.111,249.609,372.29,248.141z"/>
					<polyline style="fill:#E4B2B0;" points="405.312,216.841 403.747,217.907 402.021,230.503 415.463,217.758 414.067,216.212 
						403.747,226.797 405.336,218.806 405.311,216.667 					"/>
					<g>
						<path style="fill:#B8B0E7;" d="M396.395,191.21c0,0-1.131-3.952,0.905-5.954c2.035-2.002,5.289-2.002,5.289-2.002
							s5.555-1.491,9.728-1.041c3.234,0.349,8.42,5.96,8.91,8.696c4.541,25.327,14.148,21.647,12.052,25.975
							C421.211,241.808,396.395,191.21,396.395,191.21z"/>
					</g>
					<g>
						<path style="fill:#D36016;" d="M397.459,190.91l-2.378,12.262h1.627c0,0,0.374,7.348,0.875,8.634
							c0.375,0.962,6.256-0.501,7.133,0.625c0.875,1.127,0.528,6.936,0.528,6.936l-1.497,7.328c0,0,2.272-2.033,9.701-9.919
							c-0.201-1.26-0.288-2.046-1.13-6.844c-2.318-2.795,0.031-2.631,0.656-5.069c0.626-2.44,0.125-5.693-1.5-5.068
							c-1.628,0.625-2.378,2.271-2.378,2.271s-1.123-1.118-1.627-1.399C396.395,194.495,400.462,190.91,397.459,190.91z"/>
						<g>
							<path style="fill:#1F1426;" d="M412.317,201.961c0,0-0.804-2.418-2.221,1.92"/>
							<path style="fill:#1F1426;" d="M398.153,198.786c0,0.227,0.184,0.409,0.411,0.409c0.226,0,0.409-0.183,0.409-0.409
								s-0.183-0.411-0.409-0.411C398.337,198.375,398.153,198.559,398.153,198.786z"/>
							
								<path style="fill:none;stroke:#000000;stroke-width:0.5;stroke-linecap:round;stroke-linejoin:round;stroke-miterlimit:10;" d="
								M400.17,196.29c0,0-1.203-1.109-2.586,0"/>
							
								<path style="fill:none;stroke:#000000;stroke-width:0.5;stroke-linecap:round;stroke-linejoin:round;stroke-miterlimit:10;" d="
								M401.151,204.861c0,0-0.418,1.523-2.169,1.104"/>
							<path style="fill:#1F1426;" d="M403.747,212.035l3.179-0.48l-1.589,2.002C405.337,213.557,404.319,212.08,403.747,212.035z"
								/>
						</g>
					</g>
					
						<path style="fill:none;stroke:#000000;stroke-width:0.5;stroke-linecap:round;stroke-linejoin:round;stroke-miterlimit:10;" d="
						M419.569,229.723c-1.485,2.009-25.528,26.07-25.528,26.07l-2.213,13.775"/>
					
						<path style="fill:none;stroke:#000000;stroke-width:0.5;stroke-linecap:round;stroke-linejoin:round;stroke-miterlimit:10;" d="
						M389.32,246.875c0.166-0.364,13.705-14.885,20.22-22.799c3.907-4.746,10.028-4.222,10.639,1.193"/>
					
						<polyline style="fill:none;stroke:#000000;stroke-width:0.5;stroke-linecap:round;stroke-linejoin:round;stroke-miterlimit:10;" points="
						403.747,217.907 401.986,230.742 407.983,224.746 					"/>
					<g>
						<path style="fill:#D36016;" d="M388.741,282.582c0,0-2.062,4.25-2.518,5.51c-0.376,1.036,0.865,4.567,0,5.434
							c-1.351,1.354-1.045-0.457-1.079,0.124c-0.094,1.647-2.072,2.07-2.072,1.351c0-1.448,0.314-6.907,0.314-6.907l-1.18,7.972
							c0,0-1.603,0.711-1.653-0.57c-0.138-3.461,0.945-7.717,0.945-7.717s-1.302,4.645-1.89,6.456c-0.294,0.906-1.654,0-1.575-0.472
							c0.078-0.472,0.426-5.41,1.133-6.265c0.706-0.853,2.831-7.199,4.218-7.672c1.389-0.472,1.389-0.472,1.389-0.472
							L388.741,282.582z"/>
						<path style="fill:#D36016;" d="M384.096,278.802c0,0-3.543,2.756-5.275,5.275c-1.732,2.519-2.047,4.33-2.047,4.33
							s1.034,0.138,1.339,0c0.954-0.431,2.763-3.149,2.763-3.149s1.253,0.474,2.197,0c0.945-0.472,3.151-4.724,3.151-4.724
							L384.096,278.802z"/>
						
							<line style="fill:none;stroke:#000000;stroke-width:0.5;stroke-linecap:round;stroke-linejoin:round;stroke-miterlimit:10;" x1="385.177" y1="288.47" x2="385.144" y2="293.65"/>
					</g>
					
						<path style="fill:none;stroke:#000000;stroke-width:0.5;stroke-linecap:round;stroke-linejoin:round;stroke-miterlimit:10;" d="
						M397.459,190.91c0,0-1.333-2.145,0.694-4.241"/>
					<path style="fill:#E4B2B0;" d="M383.588,278.802c0.087-0.262,0.961-1.216,0.961-1.216l4.771,3.836l-0.579,1.572
						L383.588,278.802z"/>
					
						<path style="fill:none;stroke:#000000;stroke-width:0.5;stroke-linecap:round;stroke-linejoin:round;stroke-miterlimit:10;" d="
						M411.443,208.366c0.814,2.667,3.153,4.809,5.881,5.385"/>
				</g>
			</g>
			<g>
				<path style="fill:#E4B2B0;" d="M365.302,255.71c-0.077-1.127-2.239-3.695-3.014-4.088c-0.775-0.392-1.551,0.471-1.551,0.471
					s-1.033-0.984-1.808-0.405c-0.775,0.577-0.344,1.019-0.344,1.019s-1.292-0.503-1.981,0c-0.689,0.505,0,1.625,0,1.625
					s-1.119-0.415-1.464,0.396c-0.344,0.809,2.067,3.566,2.585,3.308c0.516-0.258,1.205-0.431,1.205-0.431s1.831,0.173,2.595-0.086
					C361.524,257.518,365.369,256.694,365.302,255.71z"/>
				
					<line style="fill:#66A582;stroke:#000000;stroke-width:0.5;stroke-linecap:round;stroke-linejoin:round;stroke-miterlimit:10;" x1="360.736" y1="252.093" x2="363.041" y2="255.882"/>
				
					<line style="fill:#66A582;stroke:#000000;stroke-width:0.5;stroke-linecap:round;stroke-linejoin:round;stroke-miterlimit:10;" x1="358.585" y1="252.707" x2="361.524" y2="257.518"/>
				
					<line style="fill:#66A582;stroke:#000000;stroke-width:0.5;stroke-linecap:round;stroke-linejoin:round;stroke-miterlimit:10;" x1="356.603" y1="254.332" x2="358.928" y2="257.604"/>
			</g>
			<path style="fill:#1F1426;" d="M343.636,392.121c0,2.503-16.043,4.532-35.833,4.532c-19.79,0-35.834-2.029-35.834-4.532
				c0-2.503,16.043-4.532,35.834-4.532C327.592,387.589,343.636,389.618,343.636,392.121z"/>
			<g>
				<path style="fill:#E4B2B0;" d="M351.923,246.143h0.977c0,0,2.239-2.234,3.359-2.276c1.12-0.044,5.056,1.421,5.241,1.85
					c0.184,0.433-0.764,1.897-0.764,1.897l-2.361-0.306c0,0-4.701,1.253-5.346,1.726v2.195l-0.785,1.476l-1.756-0.614
					L351.923,246.143z"/>
				<g>
					<path style="fill:#1F1426;" d="M313.551,170.986c0,0,4.122-2.61,2.056-5.539c0,0-1.552-6.029-11.715-4.822
						c-10.162,1.205-16.364,5.512-16.709,13.952c-0.344,8.44,8.958,16.967,8.958,16.967s6.546-6.115,7.579-7.235
						C304.755,183.189,313.551,170.986,313.551,170.986z"/>
					<path style="fill:#E4B2B0;" d="M313.366,169.926l2.241,12.921h-2.241c0,0,0,10.335-1.033,10.679c-1.033,0.344-6.03,0-6.03,0
						l-1.377,5.168l-10.163-2.757l1.378-4.392c0,0,2.583-3.36,2.583-4.908c0,0-2.239-0.862-2.411-4.652
						c-0.172-3.789,2.928-2.239,3.617,0.689h2.239v-4.479c0,0,2.585-1.378,3.014-4.995
						C305.185,173.199,311.816,173.372,313.366,169.926z"/>
					<path style="fill:#1F1426;" d="M300.275,180.49c0,0-0.425,0.109-0.344,2.183c0.082,2.074-1.801,11.526,10.089,12.816
						c5.636,0.611,5.168-9.717,4.294-11.18c-0.873-1.463-5.26-0.872-6.943,0.525c-1.682,1.397-5.202-1.01-5.202-3.125
						C302.17,179.595,300.275,180.49,300.275,180.49z"/>
					<path style="fill:#1F1426;" d="M318.76,271.26c0,0,6.877,66.098,6.491,72.429c-0.388,6.33-3.817,41.773-3.817,41.773
						s13.508,4.522,13.508,5.814v1.033h-26.486c0,0-0.645-4.263,0-5.426c0.647-1.163,0.775-2.325,0.775-2.325
						s-0.961-8.399-1.06-11.627c-0.101-3.231,1.156-24.558,0.952-27.146c-1.438-18.275-8.547-40.422-8.547-40.422
						s-2.325,33.072-4.005,41.47c-1.68,8.399-5.489,37.983-5.489,37.983s9.236,4.133,10.529,4.263
						c1.291,0.128,1.938,2.325,1.938,2.325h-24.031v-6.976c0,0-1.38-0.149-1.25-1.441c0.13-1.292,0.862-8.894,0.734-11.866
						c-0.128-2.971,0.645-66.663,0.775-70.926c0.13-4.264,0.387-28.935,0.387-28.935l38.198-0.909"/>
					<g>
						<g>
							<path style="fill:#E4B2B0;" d="M276.934,277.587c0,0-1.55,10.421-0.344,12.919c1.205,2.497,3.1,0.775,3.1,0.775
								s1.981,0.899,4.134,0.58c2.153-0.322,3.186-3.682,3.186-3.682s0.087-1.635,0.517-1.635s1.378,0,1.378,0
								s-1.896-6.547-2.585-7.408c-0.689-0.861-2.411-1.55-2.411-1.55H276.934z"/>
							<polygon style="fill:#1F1426;" points="284.922,278.077 276.781,278.697 276.934,277.587 283.911,277.587 							"/>
						</g>
					</g>
					<g>
						<g>
							<path style="fill:#FFFFFF;" d="M307.166,198.693c-4.567-1.864-14.987-4.65-16.192-4.135
								c-1.206,0.517-2.067,4.996-2.067,4.996s-3.127,4.057-5.168,7.235c-10.188,15.861-7.58,70.798-7.58,70.798h9.15l0.152-5.168
								c0,0,21.015,2.411,34.107-1.378l-1.206-25.323c0,0,13.954,5.436,17.743,5.904c3.789,0.471,9.474,0,9.474,0l4.91,0.471
								l1.598-6.633l-4.354-0.861c0,0,0.431-1.55-0.948-1.981c-1.377-0.428-21.187-6.286-21.962-7.493
								c-0.775-1.205-11.11-29.283-12.143-31.177C311.644,202.051,309.185,199.517,307.166,198.693z"/>
							<g>
								<path style="fill:#FFFFFF;" d="M289.94,198.693c0,0,15.417,10.594,16.106,10.163c0.689-0.43,0.948-6.975,3.102-8.182"/>
								
									<path style="fill:#66A582;stroke:#000000;stroke-width:0.5;stroke-linecap:round;stroke-linejoin:round;stroke-miterlimit:10;" d="
									M318.362,245.718c0,0-1.894-22.65-2.582-27.991c-0.69-5.341-1.465-8.01-1.465-8.01"/>
							</g>
						</g>
						<g>
							<path style="fill:#D25F1B;" d="M307.372,203.78l2.98,7.057c0,0,1.206,14.642,1.723,19.292
								c0.516,4.652,2.239,34.71,2.239,34.71s3.257,4.934,5.159,4.233c1.903-0.701-0.767-26.883-0.767-26.883l-6.028-32.472
								c0,0,0.688-2.153,0.256-3.359c-0.43-1.205-2.669-4.91-3.099-5.08c-0.431-0.173-1.345,0-1.345,0
								S307.653,202.686,307.372,203.78z"/>
							
								<path style="fill:#66A582;stroke:#000000;stroke-width:0.5;stroke-linecap:round;stroke-linejoin:round;stroke-miterlimit:10;" d="
								M312.679,209.717c0,0-1.552-0.603-2.327,1.12"/>
						</g>
					</g>
					
						<path style="fill:none;stroke:#1F1426;stroke-width:0.5;stroke-linecap:round;stroke-linejoin:round;stroke-miterlimit:10;" d="
						M312.44,177.115c0,0-1.762-1.722-3.293,0"/>
					<path style="fill:#E4B2B0;" d="M312.075,187.262l-3.665-0.842C308.41,186.421,309.487,189.014,312.075,187.262z"/>
					
						<path style="fill:#1F1426;stroke:#1F1426;stroke-width:0.5;stroke-linecap:round;stroke-linejoin:round;stroke-miterlimit:10;" d="
						M298.727,182.303c0,0-0.946-2.672-1.722,0"/>
					<g>
						
							<path style="fill:none;stroke:#1F1426;stroke-width:0.5;stroke-linecap:round;stroke-linejoin:round;stroke-miterlimit:10;" d="
							M314.225,178.944c0.217,1.769-0.131,3.272-0.777,3.356c-0.647,0.084-1.347-1.283-1.564-3.053
							c-0.217-1.771,0.131-3.274,0.778-3.358C313.308,175.805,314.008,177.173,314.225,178.944z"/>
						<path style="fill:#1F1426;" d="M310.399,180.706c0,0.277,0.219,0.502,0.489,0.502c0.268,0,0.487-0.225,0.487-0.502
							c0-0.277-0.219-0.501-0.487-0.501C310.618,180.205,310.399,180.429,310.399,180.706z"/>
						
							<line style="fill:none;stroke:#1F1426;stroke-width:0.5;stroke-linecap:round;stroke-linejoin:round;stroke-miterlimit:10;" x1="299.445" y1="180.96" x2="311.903" y2="179.347"/>
					</g>
					
						<path style="fill:none;stroke:#000000;stroke-width:0.5;stroke-linecap:round;stroke-linejoin:round;stroke-miterlimit:10;" d="
						M285.661,271.439c0,0,2.608-20.261,1.887-28.644c-0.722-8.384,8.943-24.918,8.71-28.994c-0.233-4.076-4.416-10.129-9.084-7.453
						"/>
				</g>
			</g>
		</g>
	</g>
</g>
</svg>
